<svg width="76" height="75" viewBox="0 0 76 75" fill="none" xmlns="http://www.w3.org/2000/svg">
<path fill-rule="evenodd" clip-rule="evenodd" d="M56.7937 2.34375C56.8963 2.34375 57.072 2.43164 57.2039 2.53418C57.3211 2.63672 58.9324 4.70215 60.7488 7.13379C62.5798 9.58008 64.074 11.6162 64.074 11.6895C64.074 11.748 63.9714 11.9385 63.8543 12.1289C63.6492 12.4365 63.532 12.4512 60.1189 12.4512V18.208C60.1189 22.5146 60.075 23.9941 59.9431 24.1406C59.8113 24.2725 58.9763 24.3164 56.7937 24.3164C53.9666 24.3164 53.8201 24.3018 53.6736 24.0234C53.5857 23.8477 53.5271 21.5625 53.5271 12.4512H51.7986C50.6121 12.4512 50.0261 12.3926 49.8943 12.2754C49.7918 12.1729 49.7332 11.9531 49.7478 11.7773C49.7625 11.6162 51.0808 9.69727 52.6921 7.5293C54.3035 5.36133 55.8416 3.31055 56.1199 2.97363C56.3982 2.62207 56.7058 2.34375 56.7937 2.34375ZM30.5584 17.5781C33.1072 17.5781 33.8396 17.6221 34.1912 17.7979C34.4256 17.915 34.7039 18.1641 34.8064 18.3398C34.8943 18.5303 35.0554 19.2041 35.1433 19.8486C35.2459 20.4932 35.5095 21.4453 35.7439 21.958C36.0222 22.5732 36.447 23.1445 36.9744 23.6572C37.4138 24.082 38.1463 24.6094 38.5857 24.8145C39.0252 25.0195 39.8162 25.2686 40.3435 25.3564C41.0759 25.4883 41.5154 25.4883 42.2478 25.3564C42.7752 25.2539 43.5076 25.0049 43.8884 24.8145C44.2839 24.624 44.8113 24.2725 45.0603 24.0527C45.324 23.8184 45.7048 23.5254 45.9099 23.3936C46.115 23.2471 46.4959 23.1445 46.7449 23.1445C47.0086 23.1445 47.4041 23.2324 47.6238 23.3496C47.8582 23.4668 49.0007 24.5361 50.1726 25.7373C52.0183 27.5977 52.3406 27.9932 52.4285 28.4912C52.4871 28.8135 52.4724 29.209 52.3845 29.3701C52.3113 29.5313 51.9304 30.0879 51.5203 30.6152C51.1248 31.1426 50.6853 31.8896 50.5535 32.2998C50.407 32.6953 50.2605 33.3984 50.2019 33.8379C50.158 34.2773 50.2019 35.0391 50.3045 35.5225C50.407 36.0059 50.6853 36.7822 50.949 37.2656C51.198 37.7344 51.7547 38.4375 52.1648 38.833C52.5896 39.2285 53.2927 39.7119 53.7029 39.917C54.157 40.1221 55.0066 40.3418 55.7244 40.4443C56.4129 40.5322 57.0867 40.6641 57.2185 40.7373C57.365 40.8105 57.614 41.0889 57.7752 41.3379C58.0388 41.7773 58.0681 42.085 58.0681 45.0439C58.0681 48.0029 58.0388 48.3105 57.7752 48.7354C57.614 48.999 57.3504 49.2773 57.1892 49.3652C57.0281 49.4531 56.3543 49.585 55.6804 49.6582C54.9773 49.7461 54.157 49.9512 53.7029 50.1709C53.2927 50.376 52.5896 50.8594 52.1648 51.2549C51.7547 51.6504 51.2273 52.2949 51.0076 52.6758C50.7879 53.0713 50.5095 53.8184 50.363 54.3457C50.2019 54.9902 50.1433 55.5762 50.2019 56.1768C50.2605 56.6602 50.407 57.3779 50.5535 57.7881C50.6853 58.1836 51.1248 58.9453 51.5203 59.4727C51.9304 60 52.3113 60.5566 52.3845 60.7178C52.4724 60.8789 52.4871 61.2744 52.4285 61.5967C52.3406 62.0947 52.033 62.4756 50.1873 64.3506C49.0007 65.5518 47.8582 66.6211 47.6238 66.7383C47.4041 66.8555 47.0232 66.9434 46.7888 66.9434C46.5545 66.9434 46.2029 66.8701 46.0125 66.7822C45.8367 66.6797 45.4265 66.3721 45.1043 66.0938C44.782 65.8008 44.1814 65.4199 43.7859 65.2295C43.3757 65.0537 42.658 64.834 42.1746 64.7314C41.53 64.6143 41.0466 64.6143 40.3435 64.7461C39.8162 64.834 38.9959 65.0977 38.5125 65.332C37.9705 65.5811 37.3406 66.0645 36.8572 66.5625C36.447 67.0166 35.9197 67.7637 35.7146 68.2178C35.4949 68.6865 35.2459 69.5947 35.1433 70.2393C35.0554 70.8838 34.8943 71.5576 34.8064 71.7334C34.7039 71.9238 34.367 72.2021 34.0447 72.3633C33.5173 72.627 33.1658 72.6562 30.4851 72.6562C27.7898 72.6562 27.4822 72.627 27.0427 72.3633C26.7937 72.2021 26.4568 71.8945 26.3103 71.6748C26.1638 71.4404 26.0173 70.8105 25.9588 70.166C25.8855 69.3604 25.7244 68.8037 25.3582 68.042C25.0066 67.3535 24.5964 66.7822 24.0691 66.3135C23.6297 65.918 22.9412 65.4492 22.5457 65.2588C22.1355 65.0684 21.3445 64.834 20.7879 64.7461C19.9968 64.5996 19.572 64.5996 18.8836 64.7461C18.4002 64.834 17.6677 65.083 17.2722 65.2881C16.8621 65.4785 16.2175 65.918 15.8074 66.2549C15.1629 66.8115 15.0017 66.8701 13.5369 66.8701L11.1199 64.4531C8.73219 62.0508 8.7029 62.0361 8.7029 61.377C8.7029 60.8643 8.79079 60.5859 9.14235 60.1318C9.39137 59.8096 9.78688 59.2529 10.0359 58.8867C10.2703 58.5205 10.5779 57.8613 10.7097 57.4219C10.8709 56.8652 10.9148 56.2354 10.8709 55.3711C10.8269 54.375 10.7244 53.9355 10.3728 53.1738C10.1238 52.6465 9.66969 51.9287 9.34743 51.5918C9.03981 51.2402 8.48317 50.7568 8.11696 50.5371C7.75075 50.3027 7.03297 50.0098 6.50563 49.8779C5.97829 49.7607 5.21657 49.6143 4.82106 49.5703C4.24977 49.4971 3.9861 49.3652 3.13649 48.4863V45.0732C3.12184 41.748 3.13649 41.6602 3.45875 41.25C3.64918 41.0156 3.91286 40.7666 4.04469 40.708C4.19118 40.6348 4.82106 40.5176 5.43629 40.4443C6.09547 40.3711 6.91579 40.1514 7.38454 39.9463C7.82399 39.7412 8.54176 39.2578 8.98122 38.8623C9.52321 38.3789 9.91872 37.8223 10.2996 37.0605C10.8123 36.0059 10.8269 35.918 10.8269 34.3506C10.8269 32.9297 10.783 32.6514 10.4461 31.9336C10.241 31.4941 9.84547 30.8643 9.5525 30.542C9.27418 30.2197 8.96657 29.8096 8.86403 29.6191C8.77614 29.4434 8.7029 29.0186 8.7029 28.667C8.7029 28.0664 8.77614 27.9932 10.9441 25.8105C12.1599 24.5654 13.3611 23.4521 13.6101 23.335C13.8738 23.2031 14.2547 23.1299 14.5623 23.1738C14.8845 23.2178 15.3826 23.4961 15.8806 23.8916C16.3201 24.2578 16.9793 24.6973 17.3455 24.873C17.7117 25.0488 18.4295 25.2686 18.9568 25.3564C19.6892 25.4883 20.1287 25.4883 20.8611 25.3564C21.3884 25.2539 22.1355 25.0195 22.5457 24.8291C22.9412 24.6387 23.5711 24.2285 23.9226 23.9209C24.2742 23.6133 24.7429 23.1006 24.9627 22.7783C25.1824 22.4561 25.4607 21.8994 25.6072 21.5332C25.7537 21.167 25.9295 20.376 25.9881 19.7754C26.0759 19.0869 26.2224 18.5449 26.3982 18.3105C26.5447 18.1055 26.8377 17.8564 27.0281 17.7686C27.2771 17.6367 28.3318 17.5781 30.5584 17.5781ZM27.1599 32.2998C26.6326 32.4316 25.6511 32.8125 24.9627 33.1348C24.2742 33.4424 23.2927 34.0283 22.7654 34.4238C22.2381 34.8047 21.4177 35.5371 20.949 36.0498C20.4802 36.5625 19.9089 37.251 19.6746 37.5732C19.4548 37.8955 19.0154 38.7158 18.6785 39.4043C18.3562 40.0928 17.9314 41.1768 17.7703 41.8213C17.5213 42.7441 17.448 43.418 17.448 44.9707C17.4334 46.3916 17.5066 47.2412 17.697 47.9736C17.8289 48.5449 18.1218 49.4238 18.3269 49.9512C18.5466 50.4785 18.9861 51.3574 19.3084 51.9141C19.6453 52.4707 20.3631 53.4082 20.9343 54.0234C21.491 54.624 22.3552 55.4004 22.8386 55.752C23.322 56.0889 24.2742 56.6455 24.9627 56.9678C25.6511 57.29 26.7351 57.7002 27.3797 57.876C28.2732 58.1104 28.991 58.1836 30.4558 58.1982C31.9793 58.2129 32.6238 58.1396 33.6785 57.876C34.3963 57.7002 35.4509 57.334 36.0222 57.0703C36.5789 56.8066 37.4724 56.3086 37.9998 55.957C38.5271 55.6055 39.3767 54.873 39.9041 54.3457C40.4314 53.8184 41.2078 52.8662 41.6326 52.2217C42.0574 51.5771 42.5994 50.5371 42.8338 49.9072C43.0828 49.292 43.3757 48.2959 43.4929 47.71C43.6248 47.124 43.7273 45.9375 43.7273 45.0439C43.7273 44.1504 43.6248 42.9639 43.4929 42.3633C43.3757 41.792 43.0828 40.7959 42.8338 40.166C42.5994 39.5508 42.0574 38.5107 41.6326 37.8662C41.2078 37.2217 40.4314 36.2695 39.9041 35.7422C39.3767 35.2148 38.4539 34.4531 37.8533 34.0576C37.2527 33.6621 36.2859 33.1494 35.7293 32.915C35.158 32.6807 34.2351 32.373 33.6785 32.2266C33.1072 32.0801 32.0232 31.9336 31.2615 31.8896C30.4998 31.8457 29.4744 31.8604 28.991 31.9336C28.5076 31.9922 27.6873 32.168 27.1599 32.2998ZM65.7586 21.0938C65.8318 21.0938 66.0076 21.167 66.1541 21.2695C66.2859 21.3721 67.8533 23.4082 69.6257 25.7812C72.0574 29.0186 72.8777 30.2051 72.863 30.498C72.863 30.7617 72.7605 30.9668 72.5701 31.0547C72.4089 31.1426 71.5447 31.2012 69.0545 31.2012V36.9141C69.0545 41.9238 69.0252 42.6563 68.8201 42.8467C68.6297 43.0225 68.073 43.0664 65.7439 43.0664C63.4148 43.0664 62.8582 43.0225 62.6824 42.8467C62.492 42.6563 62.4627 41.792 62.4627 31.2012H60.7781C59.4744 31.2012 59.0496 31.1572 58.8738 30.9814C58.7566 30.8643 58.6541 30.6152 58.6541 30.4248C58.6541 30.2344 59.9578 28.374 61.8914 25.7812C63.6785 23.4082 65.2459 21.3721 65.363 21.2695C65.4949 21.1816 65.6707 21.0938 65.7586 21.0938ZM27.1013 34.8633C27.4675 34.8633 27.6726 34.9658 27.8923 35.2588C28.156 35.6104 28.2 35.8887 28.1853 38.9648H29.5037V37.2803C29.5037 35.6836 29.5183 35.5811 29.8699 35.2295C30.0603 35.0244 30.3679 34.8633 30.5584 34.8633C30.7488 34.8633 31.0418 34.9951 31.2175 35.1562C31.5252 35.4346 31.5545 35.5664 31.5545 38.9648H33.0193V37.2363C33.0193 35.6689 33.0486 35.4932 33.3562 35.1855C33.532 35.0098 33.8396 34.8633 34.0447 34.8633C34.2498 34.8633 34.5574 35.0098 34.7478 35.2002C35.0554 35.4932 35.0701 35.6396 35.0701 38.9648H35.4656C35.7 38.9648 36.0222 39.0674 36.198 39.1846C36.4617 39.3457 36.5349 39.5508 36.5349 40.5762H38.322C39.992 40.5762 40.1531 40.6055 40.4607 40.9131C40.6365 41.0889 40.783 41.3818 40.783 41.5576C40.783 41.748 40.6218 42.0557 40.4168 42.2607C40.0798 42.6123 39.992 42.627 36.5349 42.627L36.6082 44.0186L38.5125 44.0918C40.3875 44.165 40.4021 44.165 40.6365 44.5605C40.7976 44.8535 40.8269 45.0586 40.7097 45.3662C40.6218 45.5859 40.4021 45.8496 40.197 45.9522C39.9627 46.0693 39.2156 46.1426 36.5349 46.1426V47.4609H38.2927C39.9773 47.4609 40.0652 47.4756 40.4168 47.8271C40.6218 48.0322 40.783 48.3105 40.783 48.4424C40.7976 48.5889 40.6658 48.8818 40.49 49.1016C40.197 49.5117 40.197 49.5117 36.5349 49.5117V50.0537C36.5349 50.3613 36.4617 50.6982 36.3591 50.7861C36.2566 50.8887 35.9343 50.9766 35.0701 50.9766V52.7637C35.0701 54.4336 35.0408 54.5947 34.7332 54.9023C34.5574 55.0928 34.2351 55.2246 34.0007 55.2246C33.781 55.2246 33.4734 55.0781 33.3123 54.8877C33.0486 54.5947 33.0193 54.3604 33.0193 50.9766L31.6277 51.0498L31.5838 52.8809C31.5545 54.3604 31.4959 54.7559 31.2908 54.9756C31.1443 55.1221 30.8367 55.2393 30.5584 55.2246C30.2214 55.2246 30.0017 55.1074 29.7966 54.8145C29.533 54.4629 29.489 54.1992 29.5037 50.9766H28.1853L28.1414 52.8223C28.1121 54.5947 28.0974 54.6826 27.7459 54.9463C27.5408 55.1074 27.2478 55.2393 27.0867 55.2393C26.9256 55.2246 26.6619 55.1367 26.5007 55.0195C26.2371 54.8291 26.1931 54.5947 26.0613 51.0498L25.5047 51.0059C25.1384 50.9912 24.8894 50.874 24.7429 50.6397C24.6257 50.4639 24.5232 50.1416 24.5232 49.5117H22.7214C21.2273 49.5117 20.8904 49.4678 20.6707 49.248C20.5242 49.1162 20.407 48.7939 20.4216 48.5596C20.4216 48.3252 20.5095 47.9883 20.6267 47.8271C20.8172 47.5635 21.0222 47.5342 24.5232 47.4609V46.1426L22.7507 46.0986C21.0515 46.0693 20.9636 46.0547 20.7 45.7031C20.5388 45.498 20.407 45.2051 20.407 45.0439C20.4216 44.8828 20.5242 44.6045 20.6414 44.4141C20.8465 44.1064 20.9636 44.0918 24.5232 44.0918V42.627H22.9119C21.989 42.627 21.1541 42.5537 20.9636 42.4658C20.7879 42.3633 20.5974 42.2168 20.5388 42.1289C20.4802 42.041 20.4216 41.792 20.4216 41.5576C20.4216 41.3379 20.5535 41.0303 20.7146 40.8691C20.9783 40.6055 21.198 40.5762 24.5232 40.5762V40.0928C24.5232 39.8438 24.5964 39.5068 24.699 39.3604C24.8015 39.2139 25.1677 39.0527 26.1345 38.8916L26.1052 37.1484C26.0906 35.625 26.1199 35.3613 26.3543 35.127C26.5007 34.9805 26.823 34.8633 27.1013 34.8633Z" fill="#4177B7"/>
</svg>
