<svg width="76" height="75" viewBox="0 0 76 75" fill="none" xmlns="http://www.w3.org/2000/svg">
<path fill-rule="evenodd" clip-rule="evenodd" d="M38.0436 2.49023C38.4538 2.49023 38.8932 2.59277 39.1276 2.73926C39.362 2.88574 39.904 3.2666 40.3434 3.60352C40.7829 3.94043 41.4421 4.35059 41.8083 4.51172C42.2331 4.70215 42.9802 4.84863 43.9323 4.90723C44.8405 4.98047 45.5876 5.1123 45.9098 5.27344C46.1882 5.40527 46.5837 5.71289 46.7888 5.94727C47.0427 6.23047 47.2819 6.83594 47.5065 7.76367C47.697 8.52539 47.946 9.36035 48.0778 9.59473C48.195 9.84375 48.8395 10.5908 49.4987 11.2793C50.319 12.1289 50.7731 12.7148 50.8903 13.1104C50.9929 13.4326 51.0368 13.9307 50.9782 14.209C50.9343 14.4873 50.5973 15.3516 49.5427 17.5049L49.6452 19.4824C49.7038 20.8301 49.6891 21.6064 49.572 21.8994C49.4841 22.1484 49.1911 22.5586 48.9421 22.8076C48.6638 23.1006 47.9606 23.4961 47.2282 23.8037C46.4225 24.1406 45.7927 24.5068 45.4411 24.873C45.1481 25.166 44.5768 25.8691 44.196 26.4404C43.8151 26.9971 43.2878 27.5977 43.0534 27.7588C42.819 27.9199 42.3503 28.1104 42.028 28.1689C41.5886 28.2422 41.0612 28.1543 39.904 27.832C39.0544 27.583 38.2048 27.3926 37.9997 27.3926C37.7946 27.3926 36.945 27.583 36.0954 27.832C34.9382 28.1543 34.4108 28.2422 33.9714 28.1689C33.6491 28.1104 33.1804 27.9346 32.946 27.7588C32.697 27.5977 32.1257 26.8945 31.6569 26.2207C31.2028 25.5322 30.6462 24.8291 30.4118 24.6533C30.1921 24.4629 29.4597 24.082 28.7712 23.7891C28.0827 23.4961 27.3356 23.0859 27.1013 22.8662C26.8669 22.6611 26.5886 22.251 26.4714 21.9727C26.2956 21.5625 26.2809 21.0645 26.4567 17.5049L25.7829 16.1133C25.402 15.3516 25.0651 14.4873 25.0212 14.209C24.9626 13.9307 25.0065 13.4326 25.1091 13.1104C25.2263 12.7148 25.6804 12.1289 26.5007 11.2793C27.1598 10.5908 27.8044 9.84375 27.9216 9.59473C28.0534 9.36035 28.3024 8.52539 28.4929 7.76367C28.7175 6.83594 28.9567 6.23047 29.2106 5.94727C29.4157 5.71289 29.8112 5.40527 30.0895 5.27344C30.4118 5.1123 31.1589 4.98047 32.0671 4.90723C33.0192 4.84863 33.7663 4.70215 34.1911 4.51172C34.5573 4.35059 35.2165 3.94043 35.6559 3.60352C36.0954 3.25195 36.652 2.87109 36.9011 2.73926C37.1354 2.60742 37.6481 2.50488 38.029 2.49023H38.0436ZM35.3776 8.18848C34.9382 8.34961 34.1472 8.75977 33.6345 9.11133C33.1071 9.46289 32.4186 10.0781 32.111 10.4736C31.7888 10.8838 31.3786 11.499 31.2028 11.8652C31.0124 12.2314 30.7634 12.8906 30.6315 13.3301C30.4997 13.7988 30.3972 14.6631 30.3972 15.3809C30.3972 16.0986 30.4997 16.9775 30.6315 17.4316C30.7634 17.8711 31.071 18.6328 31.32 19.1016C31.5983 19.5996 32.1989 20.3467 32.7702 20.8887C33.3268 21.4014 34.0886 21.9873 34.4987 22.1924C34.8942 22.3975 35.612 22.6611 36.0661 22.7783C36.5348 22.8955 37.4138 22.998 38.0143 22.998C38.6149 22.998 39.5085 22.8955 39.9919 22.7783C40.4753 22.6465 41.2663 22.3242 41.7497 22.0459C42.2331 21.7822 43.0241 21.1377 43.5222 20.625C44.0202 20.127 44.5915 19.3506 44.8112 18.9258C45.0163 18.5156 45.2946 17.7832 45.4118 17.3291C45.529 16.8604 45.6315 15.9521 45.6315 15.3076C45.6315 14.6631 45.529 13.7695 45.3972 13.3301C45.2653 12.8906 44.9577 12.1289 44.7087 11.6602C44.445 11.1768 43.8737 10.415 43.4343 9.97559C42.9948 9.52148 42.2331 8.9502 41.7497 8.68652C41.2663 8.4375 40.5046 8.12988 40.0651 8.0127C39.6257 7.88086 38.9665 7.76367 38.6003 7.73437C38.2341 7.70508 37.5456 7.71973 37.0622 7.77832C36.5788 7.83691 35.8171 8.0127 35.3776 8.18848ZM18.7516 34.1309C18.9128 34.1309 19.9675 34.541 21.0807 35.0537C22.3552 35.625 23.2194 36.0937 23.3952 36.3281C23.5563 36.5332 23.6735 36.9287 23.6589 37.251C23.6589 37.6318 22.5602 40.2686 19.821 46.4795C17.7116 51.2402 15.8659 55.3271 15.7194 55.5615C15.5729 55.7812 15.2214 56.0303 14.8991 56.1182C14.3864 56.2793 14.2253 56.2354 12.3796 55.4443C11.2956 54.9902 10.2263 54.4336 9.99188 54.2285C9.77215 54.0088 9.55243 53.5986 9.50848 53.3203C9.43524 52.8809 9.93329 51.6504 13.3171 43.9893C15.4557 39.126 17.3015 35.0244 17.3893 34.8633C17.4919 34.7021 17.7702 34.4678 18.0192 34.3506C18.2536 34.2334 18.5905 34.1309 18.7516 34.1309ZM18.5319 38.1592C18.5319 38.3643 18.6931 38.6865 18.8981 38.8916C19.1032 39.0967 19.4255 39.2578 19.6306 39.2578C19.8356 39.2578 20.114 39.2139 20.2458 39.1553C20.3776 39.082 20.5681 38.8477 20.6706 38.5986C20.7878 38.3057 20.8024 38.0273 20.7145 37.7637C20.6413 37.5293 20.4509 37.2949 20.2897 37.207C20.1286 37.1338 19.8356 37.0605 19.6306 37.0605C19.4255 37.0605 19.0886 37.2217 18.8981 37.4268C18.7077 37.6172 18.5466 37.9541 18.5319 38.1592ZM58.0388 35.3174C58.2292 35.3027 58.5514 35.3906 58.7712 35.5078C59.0055 35.6104 59.2546 35.8008 59.3571 35.9033C59.4596 36.0205 61.1149 40.1953 63.0632 45.1904C64.9968 50.1855 66.5788 54.4189 66.5788 54.6094C66.5788 54.7852 66.4909 55.1074 66.3884 55.3125C66.3005 55.5176 66.0514 55.7959 65.8464 55.9131C65.6413 56.0449 64.6159 56.4697 63.5759 56.8652C62.2136 57.3926 61.5544 57.5684 61.2321 57.5098C60.9977 57.4658 60.6169 57.2461 60.4118 57.0264C60.1335 56.7334 58.9763 53.9209 56.5593 47.6807C54.2741 41.748 53.1022 38.5547 53.1022 38.2031C53.1022 37.8369 53.2194 37.5146 53.4245 37.2803C53.6296 37.0459 54.5085 36.6064 55.7389 36.1084C56.8229 35.6689 57.863 35.3174 58.0388 35.3174ZM56.0759 38.8184C55.8708 39.126 55.8708 39.2578 56.0026 39.624C56.0905 39.873 56.3395 40.1514 56.5446 40.2539C56.7497 40.3418 57.0134 40.4297 57.1306 40.4297C57.2477 40.4297 57.5261 40.2832 57.7311 40.1074C57.9948 39.8828 58.1315 39.6143 58.1413 39.3018C58.1559 38.9941 58.0534 38.7158 57.863 38.54C57.7018 38.3936 57.4382 38.2178 57.277 38.1738C57.1159 38.1299 56.8376 38.1738 56.6471 38.2764C56.4714 38.3789 56.2077 38.6133 56.0759 38.8184ZM37.6774 66.0645C37.8679 66.0645 38.2048 66.167 38.4538 66.2842C38.6882 66.4014 38.9958 66.709 39.113 66.9434C39.2302 67.1924 39.3327 67.5586 39.3327 67.793C39.3327 68.0127 38.9225 68.9502 38.4245 69.873C37.9411 70.7959 37.3259 71.7773 37.0768 72.041C36.7106 72.4219 36.5056 72.5098 36.0368 72.5098C35.5681 72.5098 35.3483 72.4219 34.9675 72.041C34.7038 71.7773 34.4548 71.3818 34.4255 71.1621C34.3669 70.8545 34.6306 70.2246 35.5241 68.5986C36.1979 67.3682 36.8425 66.3574 37.0182 66.2549C37.2087 66.1523 37.5016 66.0645 37.6774 66.0645ZM47.902 26.1328C47.9753 26.1475 48.5466 27.3047 49.1472 28.6816C49.7477 30.0732 50.2165 31.2305 50.1725 31.2598C50.1286 31.2891 49.1764 31.1279 48.0485 30.8936C46.9206 30.6592 45.9245 30.4834 45.8513 30.5127C45.7634 30.5566 45.2067 31.377 44.6061 32.3584C44.0056 33.3398 43.4782 34.1309 43.4343 34.1309C43.3903 34.1455 43.0534 33.4277 42.6725 32.5635C42.3063 31.6992 41.9694 30.8936 41.9401 30.7764C41.9108 30.6299 42.0866 30.5273 42.4821 30.4541C42.8044 30.3955 43.3317 30.249 43.654 30.1025C43.9763 29.9707 44.4889 29.6484 44.8112 29.3994C45.1188 29.1357 45.7194 28.418 46.1296 27.7881C46.5397 27.1436 47.0817 26.5137 47.3161 26.3525C47.5505 26.2061 47.8141 26.1035 47.902 26.1328ZM28.8298 26.3965C28.9323 26.4258 29.3718 27.0117 29.8259 27.6855C30.3093 28.418 30.9391 29.1504 31.3639 29.4727C31.7595 29.7803 32.3747 30.1172 32.7409 30.2344C33.1071 30.3516 33.7077 30.4834 34.0886 30.5273C34.4841 30.5859 34.7917 30.6592 34.7917 30.7324C34.7917 30.791 34.3229 31.8604 33.7516 33.1055C33.1657 34.3506 32.653 35.4492 32.5798 35.5225C32.5212 35.6104 31.9938 34.8193 31.4079 33.7793C30.8073 32.7393 30.28 31.875 30.2067 31.8457C30.1481 31.8164 29.1667 31.9482 28.0095 32.1533C26.8669 32.3437 25.9147 32.4756 25.8854 32.4463C25.8708 32.4023 26.1931 31.626 26.6179 30.7324C27.028 29.8242 27.6579 28.4619 28.0095 27.7148C28.3757 26.9385 28.7419 26.3672 28.8298 26.3965ZM42.6286 41.3232C43.1852 41.3232 43.9323 41.3818 44.2692 41.4551C44.6208 41.543 45.778 41.9238 46.8327 42.3193C47.902 42.7148 49.2057 43.1104 49.7331 43.2129C50.4655 43.3301 50.861 43.3301 51.4616 43.1836C52.1501 43.0225 52.2673 43.0225 52.3405 43.2129C52.3845 43.3301 53.4245 46.0254 54.6696 49.1895C56.8962 54.9023 56.9108 54.9316 56.5739 55.0928C56.2956 55.2393 56.1638 55.1953 55.6657 54.8291C55.3434 54.5801 52.8679 53.1299 50.1725 51.6064C47.4772 50.0684 45.0016 48.7354 44.6794 48.6328C44.3571 48.5156 43.5954 48.4277 42.9948 48.4277C42.3942 48.4424 41.4714 48.5596 40.944 48.7061C40.4167 48.8525 39.0397 49.3506 37.8679 49.8193C36.696 50.2734 35.2165 50.7568 34.572 50.9033C33.8102 51.0645 33.1364 51.1084 32.6677 51.0498C32.2575 50.9912 31.7009 50.8594 31.4225 50.7422C31.1442 50.625 30.6608 50.3467 30.3532 50.127C30.0456 49.9072 29.7966 49.7021 29.7966 49.6582C29.7966 49.6143 30.28 49.2627 30.8659 48.8672C31.4518 48.4717 32.4626 47.7393 33.1071 47.2412C33.7516 46.7432 34.9968 45.6445 35.8903 44.8242C36.7692 44.0039 37.7653 43.1396 38.0876 42.9199C38.4098 42.7002 38.9665 42.3633 39.3327 42.1875C39.6989 41.9971 40.3581 41.7334 40.7975 41.5869C41.2516 41.4404 42.0573 41.3232 42.6286 41.3232ZM33.4733 41.6602C34.235 41.6895 34.9821 41.7773 35.1286 41.8359C35.2751 41.9092 35.3776 42.0117 35.3483 42.0703C35.319 42.1289 34.6452 42.7881 33.8395 43.5352C33.0192 44.2822 31.8327 45.293 31.2028 45.7764C30.5583 46.2598 29.4304 47.0215 28.7126 47.4756C27.8337 48.0225 27.3014 48.4619 27.1159 48.7939C26.9401 49.1016 26.8669 49.4385 26.9255 49.6582C26.9694 49.8633 27.2917 50.376 27.6432 50.7861C27.9948 51.2109 28.6393 51.8408 29.0788 52.1631C29.5182 52.5 30.1774 52.9102 30.5436 53.0713C30.9831 53.2617 31.6569 53.3789 32.5944 53.4229C33.6931 53.4814 34.235 53.4375 35.1579 53.2031C35.8024 53.042 37.4431 52.4854 38.82 51.958C40.1823 51.4307 41.7057 50.9326 42.1891 50.8447C42.7751 50.7568 43.2878 50.7568 43.7272 50.8447C44.1227 50.9326 46.3786 52.1338 49.4255 53.877C53.7028 56.3232 54.4938 56.8359 54.6989 57.2461C54.8893 57.627 54.904 57.8467 54.7868 58.2715C54.6891 58.623 54.4694 58.916 54.1276 59.1504C53.7761 59.3848 53.4831 59.4727 53.1755 59.4287C52.9264 59.3994 51.1833 58.4912 49.2936 57.4219C47.404 56.3525 45.6755 55.4736 45.4557 55.459C45.2214 55.4443 44.9138 55.5908 44.694 55.8105C44.4597 56.0303 44.3132 56.3379 44.3132 56.5869C44.3132 56.8213 44.4743 57.1436 44.7087 57.3926C44.943 57.6123 46.5983 58.6084 48.4001 59.6191C50.8024 60.9668 51.7546 61.5674 51.9596 61.8896C52.1061 62.1387 52.2233 62.4902 52.2233 62.6953C52.2233 62.9004 52.0915 63.2812 51.9304 63.5449C51.7253 63.8672 51.4616 64.0576 51.0807 64.1602C50.6852 64.248 50.4216 64.2334 50.0993 64.1016C49.8503 63.999 47.7848 62.8564 45.485 61.5674C43.1852 60.2783 41.1638 59.1797 40.9733 59.1211C40.7975 59.0771 40.4753 59.1211 40.2409 59.2383C40.0212 59.3408 39.8014 59.5459 39.7282 59.6777C39.6696 59.8096 39.6257 60.0732 39.6257 60.2783C39.6257 60.4834 39.7721 60.8057 39.9479 60.9961C40.1384 61.1865 41.8669 62.2412 43.8005 63.3252C45.8806 64.4971 47.4479 65.4639 47.653 65.7129C47.8434 65.9619 47.9899 66.3281 47.9753 66.6211C47.9753 66.958 47.8288 67.2363 47.4479 67.6465C46.9499 68.1445 46.8766 68.1885 46.3054 68.1006C45.9391 68.042 44.7673 67.4707 43.2878 66.6357C41.9548 65.874 40.5778 65.0098 40.2116 64.7022C39.8161 64.3652 39.2302 64.0576 38.7468 63.9111C38.2341 63.7646 37.6921 63.7207 37.238 63.7793C36.6081 63.8525 36.5495 63.8379 36.4763 63.5449C36.447 63.3545 36.1979 62.9443 35.9196 62.6221C35.6559 62.2998 35.07 61.8604 34.6306 61.626C33.986 61.3037 33.6491 61.2305 31.7888 61.2305L31.3786 60.498C31.1149 60.0146 30.7487 59.6191 30.28 59.3262C29.8991 59.0771 29.3571 58.8135 29.0788 58.7402C28.8005 58.6523 28.3317 58.5938 28.0534 58.5938C27.5847 58.5938 27.5114 58.5352 27.2477 57.8906C27.1013 57.5098 26.735 56.9531 26.4421 56.6309C26.1638 56.3232 25.6657 55.9277 25.3434 55.752C24.8893 55.5176 24.4938 55.4443 23.5856 55.4443C22.5749 55.4443 22.3259 55.5029 21.7106 55.8545C21.0807 56.2061 21.0075 56.2207 20.9343 56.001C20.8903 55.8545 20.7438 55.4883 20.612 55.166C20.4655 54.8584 20.1139 54.3604 19.235 53.54L21.7546 47.8271C23.1462 44.6924 24.3327 42.0557 24.3766 41.9971C24.4206 41.9385 24.8747 42.0117 25.3727 42.1875C25.9147 42.3486 26.6765 42.4805 27.2038 42.4805C27.7165 42.4805 28.7565 42.334 29.5182 42.1729C30.28 42.0117 31.1735 41.8213 31.4958 41.748C31.8181 41.6748 32.7116 41.6309 33.4733 41.6602ZM23.5417 57.7148C23.7761 57.7148 24.1423 57.8174 24.3913 57.9346C24.655 58.0664 24.9186 58.374 25.0651 58.7109C25.197 59.0332 25.2556 59.3994 25.197 59.6191C25.1384 59.8242 24.5964 60.8496 23.9958 61.8896C23.3806 62.9443 22.78 63.8818 22.6481 63.9844C22.5163 64.0869 22.1501 64.1602 21.8278 64.1748C21.4616 64.1748 21.0954 64.0576 20.8317 63.8672C20.612 63.7061 20.363 63.3252 20.2604 63.0322C20.0993 62.5049 20.1286 62.4023 20.7585 61.1572C21.1393 60.4395 21.6667 59.4434 21.9597 58.96C22.2526 58.4766 22.6335 58.0078 22.8239 57.9053C22.9997 57.8027 23.322 57.7148 23.5417 57.7148ZM28.1999 60.9814C28.6979 61.04 28.9616 61.1719 29.2546 61.5088C29.5329 61.8164 29.6647 62.124 29.6647 62.4463C29.6647 62.7393 29.2106 63.7646 28.405 65.332C27.7165 66.665 26.9548 67.9248 26.7204 68.1592C26.4274 68.4375 26.1345 68.5547 25.7829 68.5547C25.5046 68.5547 25.0944 68.4668 24.8893 68.3789C24.6696 68.2764 24.4059 68.0127 24.3034 67.793C24.1862 67.5586 24.0983 67.1631 24.0983 66.9141C24.0983 66.5771 24.5231 65.6836 25.5046 63.9404C26.2663 62.5781 27.0427 61.333 27.2184 61.1719C27.4675 60.9668 27.6872 60.9228 28.1999 60.9814ZM32.8434 63.5742C33.3708 63.5742 33.5612 63.6621 33.986 64.0869C34.3229 64.4238 34.4987 64.7314 34.4987 65.0098C34.4987 65.2295 34.0007 66.3574 33.4001 67.5293C32.7995 68.7012 32.1403 69.7998 31.9352 69.9902C31.7009 70.1953 31.3786 70.3125 31.0563 70.3125C30.778 70.3125 30.3679 70.2246 30.1335 70.1074C29.9138 70.0049 29.6501 69.7412 29.5475 69.5215C29.4597 69.3164 29.3718 68.9941 29.3718 68.8184C29.3718 68.6279 29.9138 67.4561 30.5729 66.2109C31.2175 64.9658 31.862 63.8672 31.9938 63.7646C32.1257 63.6621 32.5065 63.5742 32.8434 63.5742ZM41.6325 68.4082C41.7057 68.3936 42.072 68.6133 42.4821 68.877C42.8776 69.1406 43.3024 69.5654 43.405 69.7998C43.5807 70.1807 43.5807 70.3271 43.3757 70.8691C43.2194 71.2793 42.9948 71.5576 42.7018 71.7041C42.4528 71.8213 42.1159 71.9238 41.9255 71.9238C41.7497 71.9238 41.3395 71.792 41.0173 71.6162C40.695 71.4404 40.4167 71.2793 40.3874 71.25C40.3727 71.2207 40.6218 70.6934 40.944 70.0928C41.2663 69.4922 41.53 68.8623 41.53 68.7012C41.53 68.54 41.5739 68.4082 41.6325 68.4082ZM42.1159 11.5723C42.3942 11.5723 42.6872 11.7041 42.9216 11.9385C43.1559 12.1729 43.2878 12.4658 43.2878 12.7441C43.2878 13.0225 43.1413 13.3301 42.8776 13.6084C42.6579 13.8281 41.4274 14.9707 40.1384 16.1279C38.8493 17.2852 37.5456 18.457 37.238 18.7207C36.8718 19.043 36.5495 19.1895 36.2126 19.1895C35.8171 19.1895 35.5241 18.9697 34.2497 17.6807C32.8874 16.3184 32.7409 16.1426 32.7409 15.6445C32.7409 15.2783 32.8434 14.9854 33.0339 14.7949C33.2097 14.6191 33.5173 14.502 33.8395 14.502C34.2643 14.502 34.5134 14.6484 36.3298 16.377L36.7839 15.9961C37.0329 15.7764 38.2341 14.6924 39.4499 13.5938C41.2809 11.9385 41.7497 11.5723 42.1159 11.5723Z" fill="#4177B7"/>
</svg>
