<svg width="76" height="75" viewBox="0 0 76 75" fill="none" xmlns="http://www.w3.org/2000/svg">
<g clip-path="url(#clip0_1318_978)">
<path fill-rule="evenodd" clip-rule="evenodd" d="M35.7744 0.0145254C36.1113 -0.000123022 36.5068 0.0438223 36.6387 0.117064C36.7852 0.175658 40.4619 3.26648 44.8125 6.98718C49.749 11.2206 52.8398 13.9745 53.0449 14.3114C53.2354 14.619 53.3818 15.0878 53.3818 15.3514C53.3818 15.6005 53.25 16.0839 53.0889 16.4061C52.8936 16.7968 52.6006 17.0897 52.21 17.285C51.668 17.5487 51.3311 17.578 44.5928 17.578V24.7557L44.124 25.0194C43.875 25.1512 42.9961 25.7079 42.1904 26.2499C41.3701 26.7772 40.1689 27.7001 39.5098 28.3007C38.8506 28.8866 37.9131 29.8387 37.415 30.3954C36.9316 30.952 36.1406 31.9774 35.6719 32.6659C35.2031 33.3544 34.5146 34.4677 34.1484 35.1561C33.7822 35.8446 33.2549 37.0311 32.9766 37.7928C32.6836 38.5546 32.3174 39.7411 32.1416 40.4296C31.9658 41.118 31.7314 42.3632 31.6143 43.2128C31.5117 44.0624 31.4092 45.4393 31.4092 46.2889C31.4092 47.1385 31.5117 48.5155 31.6143 49.3651C31.7314 50.2147 31.9658 51.4598 32.1416 52.1483C32.3174 52.8368 32.6836 54.0233 32.9766 54.785C33.2549 55.5468 33.7822 56.7333 34.1484 57.4218C34.5146 58.1102 35.2031 59.2235 35.6719 59.912C36.1406 60.6005 36.9316 61.6112 37.415 62.1825C37.9131 62.7538 38.8506 63.6913 39.5098 64.2772C40.1689 64.8778 41.3848 65.8007 42.1904 66.328C43.0107 66.87 43.8896 67.4266 44.5928 67.8221V70.5321C44.5928 72.8759 44.5635 73.3153 44.3145 73.7987C44.168 74.0917 43.8018 74.4872 42.9814 74.9999H27.0146V17.578H23.4551C20.2764 17.578 19.8516 17.5487 19.3975 17.2997C19.1191 17.1532 18.7383 16.7723 18.5625 16.4647C18.3721 16.1571 18.2256 15.6591 18.2256 15.3807C18.2256 15.1024 18.3721 14.619 18.5625 14.326C18.7529 14.0038 21.9756 11.1327 26.6484 7.14831C30.9111 3.50085 34.5732 0.395385 34.7783 0.263549C34.9834 0.131713 35.4229 0.0145254 35.7598 0.0145254H35.7744ZM56.1797 26.6014C57.3516 26.6307 58.8018 26.7626 59.4023 26.8798C60.0029 26.9969 61.0283 27.2753 61.6729 27.4803C62.3174 27.6854 63.3721 28.0956 64.0166 28.4032C64.6611 28.6962 65.7451 29.3114 66.4336 29.7509C67.1221 30.205 68.1328 30.952 68.6895 31.4354C69.2461 31.9042 70.125 32.7977 70.6377 33.3983C71.1504 33.9989 71.8682 34.9218 72.2051 35.4491C72.5566 35.9764 73.1133 36.9432 73.4502 37.6171C73.7725 38.2762 74.2412 39.3895 74.4756 40.0927C74.71 40.8104 75.0322 41.9384 75.1787 42.6268C75.3691 43.535 75.4424 44.5311 75.4424 46.2889C75.4424 48.0468 75.3691 49.0428 75.1787 49.951C75.0322 50.6395 74.71 51.7675 74.4756 52.4852C74.2412 53.1884 73.7725 54.3016 73.4502 54.9608C73.1133 55.6346 72.5566 56.6014 72.2051 57.1288C71.8682 57.6561 71.1504 58.579 70.6377 59.1796C70.125 59.7802 69.2461 60.6737 68.6895 61.1425C68.1328 61.6259 67.1221 62.3729 66.4336 62.827C65.7451 63.2665 64.6611 63.8817 64.0166 64.1747C63.3721 64.4823 62.3174 64.8925 61.6729 65.0975C61.0283 65.3173 59.9443 65.5956 59.2559 65.7274C58.3916 65.9032 57.2783 65.9764 55.5938 65.9764C53.8359 65.9911 52.8398 65.9178 51.9316 65.7274C51.2432 65.5809 50.1592 65.288 49.5146 65.0829C48.8701 64.8778 47.8447 64.4823 47.2441 64.204C46.6436 63.9257 45.4863 63.2665 44.6807 62.7391C43.6846 62.0946 42.7031 61.2596 41.6045 60.1464C40.7109 59.2528 39.6563 58.0223 39.2607 57.4218C38.8652 56.8212 38.25 55.7665 37.8984 55.078C37.5615 54.3895 37.0928 53.2323 36.8438 52.5145C36.6094 51.7968 36.3018 50.6395 36.1553 49.951C35.9648 49.0575 35.8916 48.0321 35.8916 46.2889C35.8916 44.5458 35.9648 43.5204 36.1553 42.6268C36.3018 41.9384 36.6094 40.7811 36.8438 40.0634C37.0928 39.3456 37.5615 38.1884 37.8984 37.4999C38.25 36.8114 38.8652 35.7567 39.2607 35.1561C39.6563 34.5555 40.7109 33.3251 41.6045 32.4315C42.7031 31.3182 43.6846 30.4833 44.6807 29.8387C45.4863 29.3114 46.6436 28.6522 47.2441 28.3739C47.8447 28.0956 48.8701 27.7001 49.5146 27.495C50.1592 27.2899 51.2139 27.0116 51.8584 26.8944C52.5029 26.7626 53.2646 26.6307 53.543 26.6014C53.8213 26.5721 55.0078 26.5721 56.1797 26.6014ZM53.6602 32.1093C53.4697 32.4755 53.4111 32.9735 53.4111 34.1307L53.3965 35.6688C52.1953 36.2255 51.4775 36.7675 50.9648 37.2655C50.4814 37.7635 49.9248 38.4813 49.7344 38.8915C49.5439 39.287 49.2949 39.9462 49.1924 40.3563C49.0898 40.7518 49.002 41.3964 49.002 41.7919C49.002 42.1727 49.0752 42.8319 49.1631 43.2421C49.251 43.6669 49.5 44.3846 49.7051 44.8241C49.9248 45.3075 50.4375 45.996 50.9648 46.5087C51.4629 46.9921 52.2246 47.5634 52.6641 47.7684C53.1035 47.9882 53.8213 48.2225 54.2314 48.3251C54.6562 48.413 55.2422 48.4862 55.5205 48.4862C55.7988 48.4862 56.2969 48.618 56.6191 48.7792C57.0098 48.9745 57.3027 49.2675 57.498 49.6581C57.6592 49.9803 57.791 50.4491 57.791 50.6835C57.791 50.9178 57.6592 51.3866 57.498 51.7089C57.3027 52.0995 57.0098 52.3925 56.6191 52.5878C56.2969 52.7489 55.8135 52.8807 55.5498 52.8807C55.3008 52.8807 54.7881 52.7343 54.4219 52.5731C54.0557 52.3973 53.3965 51.9139 52.957 51.4745C52.459 50.9911 51.9463 50.6395 51.5947 50.537C51.2432 50.4491 50.8623 50.4344 50.4961 50.5223C50.1738 50.6102 49.7637 50.8739 49.4707 51.1815C49.2217 51.4745 48.958 51.9286 48.9141 52.1776C48.8701 52.4413 48.8701 52.8954 48.9287 53.1737C49.002 53.5399 49.3389 53.9794 50.1592 54.785C50.9502 55.5614 51.5801 56.0302 52.3418 56.3964L53.3965 56.9091C53.3965 59.5897 53.4551 60.0292 53.6748 60.4686C53.8359 60.7762 54.1875 61.1425 54.5098 61.3329C54.832 61.5087 55.3008 61.6552 55.5498 61.6698C55.8135 61.6698 56.2969 61.538 56.6191 61.3768C57.0098 61.1815 57.3027 60.8885 57.498 60.4979C57.7324 60.0292 57.791 59.619 57.791 58.4032V56.9091C59.0068 56.3524 59.6953 55.8251 60.208 55.3124C60.7061 54.7997 61.2627 54.0526 61.4971 53.5692C61.7168 53.1151 61.9658 52.2509 62.0684 51.6649C62.2148 50.83 62.2002 50.3905 62.0537 49.5848C61.9512 48.9696 61.6582 48.1493 61.3359 47.5487C61.0283 46.9628 60.4863 46.245 60.0615 45.8641C59.6514 45.4979 58.9629 45.0145 58.5234 44.8094C58.084 44.5897 57.3662 44.3553 56.9414 44.2528C56.5312 44.1649 55.9307 44.0917 55.623 44.0917C55.3301 44.077 54.832 43.9305 54.5098 43.7548C54.1875 43.5643 53.8359 43.1981 53.6748 42.8759C53.5283 42.5829 53.3965 42.1141 53.3965 41.8505C53.3965 41.6014 53.5137 41.1473 53.6748 40.869C53.8213 40.5907 54.2021 40.2098 54.5098 40.0341C54.8174 39.8436 55.3154 39.6971 55.5938 39.6971C55.8721 39.6971 56.3701 39.829 56.6924 39.9755C57.0146 40.1219 57.542 40.4735 57.8643 40.7518C58.1865 41.0302 58.6846 41.3085 58.9629 41.3671C59.2412 41.4257 59.6953 41.4403 59.9443 41.3964C60.208 41.3524 60.6621 41.0887 60.9551 40.8251C61.2627 40.5468 61.5264 40.1366 61.6143 39.7997C61.7021 39.4628 61.6875 39.038 61.5996 38.6718C61.4971 38.2469 61.248 37.8954 60.6768 37.412C60.2666 37.0311 59.4316 36.4891 58.8457 36.1962L57.791 35.6688C57.791 32.9589 57.7324 32.5487 57.498 32.08C57.3027 31.6893 57.0098 31.3964 56.6191 31.201C56.2969 31.0399 55.8135 30.9081 55.5498 30.9081C55.3008 30.9081 54.8174 31.0692 54.4951 31.2743C54.1729 31.4647 53.792 31.8456 53.6602 32.1093ZM22.6348 30.9081V74.9999H13.8457V53.8329C13.8457 32.9589 13.8457 32.6512 14.1387 32.08C14.3291 31.7137 14.6367 31.3915 14.9736 31.201C15.4863 30.952 15.8525 30.9227 22.6348 30.9081ZM9.30469 48.4862V74.9999H5.71582C2.15625 74.9999 2.12695 74.9999 1.57031 74.6483C1.27734 74.4432 0.911133 74.0477 0.764648 73.7694C0.530273 73.286 0.515625 72.3925 0.515625 61.743C0.515625 50.537 0.530273 50.2294 0.808594 49.6581C0.999023 49.2919 1.30664 48.9696 1.64355 48.7792C2.15625 48.5302 2.52246 48.5009 9.30469 48.4862Z" fill="#4177B7"/>
</g>
<defs>
<clipPath id="clip0_1318_978">
<rect width="75" height="75" fill="white" transform="translate(0.5)"/>
</clipPath>
</defs>
</svg>
