<svg width="76" height="75" viewBox="0 0 76 75" fill="none" xmlns="http://www.w3.org/2000/svg">
<path d="M36.8724 5.09766C36.6234 5.31738 35.8031 6.38672 35.0707 7.4707L33.7377 9.44824C31.5404 10.0781 30.4564 10.4004 29.8998 10.5615C29.3578 10.708 28.7133 11.001 28.4789 11.2061C28.2299 11.4111 27.9808 11.8066 27.9076 12.1289C27.8051 12.5098 27.8197 12.8174 27.9515 13.1836C28.0394 13.4619 28.8011 14.5752 29.6215 15.6445L31.1156 17.5781L31.0424 23.1152C31.7162 23.833 32.1556 24.0967 32.434 24.1699C32.8881 24.3018 33.2689 24.1992 35.5101 23.4375L38.0736 22.5586C40.5785 23.4668 41.6918 23.8623 42.1752 24.0234C42.8344 24.2285 43.1859 24.2725 43.5668 24.1699C43.8451 24.0967 44.2845 23.833 44.5189 23.584L44.9584 23.1152L44.8851 17.5781C47.1996 14.5752 47.9613 13.4619 48.0492 13.1836C48.181 12.8174 48.1957 12.5098 48.0931 12.1289C48.0199 11.8066 47.7709 11.4111 47.5218 11.2061C47.2875 11.001 46.599 10.6934 46.0131 10.5322C45.4418 10.3564 44.3578 10.0488 43.6107 9.8291L42.2631 9.44824C40.1976 6.38672 39.3773 5.31738 39.1283 5.08301C38.7621 4.77539 38.5131 4.6875 38.0004 4.6875C37.4877 4.6875 37.224 4.77539 36.8724 5.09766ZM14.6068 11.1621C14.4164 11.25 13.7572 12.085 13.1127 13.0225C12.4828 13.96 11.8676 14.7949 11.7504 14.8828C11.6478 14.9854 10.7396 15.3076 9.72888 15.6006C8.71814 15.9082 7.7367 16.2305 7.53162 16.333C7.32654 16.4355 7.04822 16.7871 6.90173 17.124C6.7113 17.6074 6.68201 17.8125 6.81384 18.1348C6.90173 18.3545 7.54627 19.2773 8.24939 20.1855L9.50916 21.8262C9.42127 26.1035 9.45056 26.3379 9.72888 26.7773C9.91931 27.085 10.2123 27.3047 10.5638 27.4072C11.0619 27.5391 11.3256 27.4951 13.2445 26.8213L15.3685 26.0742C18.2103 27.085 19.1918 27.4219 19.3969 27.4658C19.6312 27.5391 19.9681 27.4658 20.3197 27.3047C20.6713 27.1289 20.9642 26.8506 21.0961 26.5576C21.2572 26.1768 21.2865 25.6348 21.2133 23.9941L21.1254 21.8994C23.2054 19.1748 23.8353 18.252 23.8793 18.0908C23.9379 17.9297 23.9232 17.5781 23.8793 17.3291C23.8353 17.0654 23.6156 16.6992 23.3812 16.5088C23.1615 16.3184 22.1361 15.9375 20.9642 15.6006L18.9428 15.0146C17.1703 12.4072 16.5258 11.5283 16.3793 11.3818C16.2181 11.25 15.8373 11.1035 15.515 11.0596C15.1927 11.0156 14.7826 11.0596 14.6068 11.1621ZM60.1195 11.0889C60.0023 11.1328 59.7826 11.2793 59.6215 11.4111C59.475 11.543 58.8451 12.4072 58.2006 13.3301L57.058 15.0146C53.8939 15.9375 52.8539 16.333 52.6195 16.5234C52.3851 16.6992 52.1654 17.0508 52.1215 17.3291C52.0775 17.5781 52.0629 17.9297 52.1215 18.0908C52.1654 18.252 52.7953 19.1748 53.5277 20.1416L54.8607 21.8994L54.7728 26.499C55.6224 27.3633 55.8422 27.4658 56.2816 27.4512C56.5746 27.4512 57.6879 27.1436 58.7279 26.7627L60.6322 26.0742C64.6752 27.4951 64.9388 27.5391 65.4369 27.4072C65.7884 27.3047 66.0814 27.085 66.2865 26.7773C66.5502 26.3379 66.5795 26.1035 66.5355 24.0674L66.4916 21.8262C68.5131 19.1602 69.1576 18.208 69.2308 17.9883C69.3187 17.6953 69.2748 17.417 69.0697 17.0361C68.8939 16.6553 68.6302 16.4063 68.2347 16.2451C67.9271 16.1133 66.9457 15.791 66.0521 15.5273C65.1732 15.2637 64.3529 14.9854 64.2504 14.8975C64.1332 14.7949 63.5326 13.96 62.9027 13.0371C62.2582 12.0996 61.5844 11.2646 61.3793 11.1768C61.1742 11.0742 60.8519 10.9863 60.6761 11.001C60.4857 11.001 60.2367 11.0449 60.1195 11.0889ZM36.682 31.3477C36.2426 31.4209 35.5101 31.6113 35.0707 31.7725C34.6312 31.9336 33.8695 32.3291 33.3861 32.6367C32.9027 32.959 32.1996 33.5303 31.8187 33.9258C31.4379 34.3213 30.8959 35.0391 30.6029 35.5225C30.3099 36.0059 29.9437 36.8262 29.7679 37.3535C29.5482 38.0713 29.475 38.6865 29.475 39.8438C29.475 41.001 29.5482 41.6162 29.7826 42.334C29.9437 42.8613 30.3246 43.7109 30.6322 44.2236C30.9398 44.7363 31.6136 45.5566 32.141 46.0547C32.7123 46.5967 33.5326 47.168 34.1918 47.5049C34.7924 47.8125 35.3929 48.0469 35.5101 48.0469C35.6273 48.0322 35.8324 48.1348 35.9496 48.2666C36.1547 48.4717 36.1107 48.501 35.5101 48.4863C35.1439 48.4863 34.2211 48.6328 33.4594 48.8232C32.6537 49.0283 31.5111 49.4678 30.7494 49.8486C30.0316 50.2148 28.9769 50.918 28.4056 51.3867C27.849 51.8701 27.0726 52.6465 26.7064 53.1152C26.3256 53.584 25.7836 54.4043 25.5052 54.9316C25.2123 55.459 24.8021 56.3818 24.597 56.9824C24.392 57.583 24.1576 58.5791 24.0697 59.1797C23.9818 59.8096 23.9379 61.6992 23.9672 63.5742L24.0111 66.8701C24.8021 68.3203 25.2416 68.9062 25.476 69.1113C25.725 69.3018 26.2963 69.6533 26.765 69.8877L27.6 70.3125H48.4008C49.7045 69.6533 50.2904 69.3018 50.5248 69.1113C50.7738 68.9062 51.1986 68.3203 51.4769 67.8076L51.9896 66.8701C51.975 58.8574 51.975 58.7988 51.5648 57.4951C51.3451 56.7627 50.9056 55.6787 50.5834 55.0781C50.2611 54.4775 49.6019 53.4961 49.1185 52.9102C48.6498 52.3389 47.7709 51.5039 47.1996 51.0645C46.6136 50.625 45.6468 50.0391 45.0756 49.7461C44.4896 49.4531 43.5228 49.0869 42.9515 48.9258C42.3656 48.7646 41.4281 48.5889 40.8568 48.5156C39.8461 48.3984 39.8461 48.3838 40.2709 48.208C40.5199 48.0908 41.2084 47.7686 41.809 47.4902C42.5121 47.1533 43.2445 46.6406 43.8597 46.0547C44.3871 45.5566 45.0609 44.7363 45.3685 44.2236C45.6761 43.7109 46.057 42.8613 46.2181 42.334C46.4525 41.6162 46.5258 41.001 46.5258 39.8438C46.5258 38.6865 46.4525 38.0713 46.2181 37.3535C46.057 36.8262 45.6761 35.9766 45.3685 35.4639C45.0609 34.9512 44.3724 34.1162 43.8304 33.6035C43.2738 33.0908 42.4535 32.4756 41.9994 32.2412C41.5306 32.0068 40.7836 31.7139 40.3441 31.5967C39.9047 31.4648 39.0844 31.333 38.5131 31.2891C37.9564 31.2598 37.1215 31.2744 36.682 31.3477ZM17.4926 33.0469C17.0531 33.1641 16.306 33.4863 15.8226 33.7354C15.3539 33.999 14.6215 34.5703 14.1967 35.0098C13.7865 35.4492 13.2592 36.167 13.0541 36.5771C12.8344 37.002 12.556 37.7344 12.4388 38.1885C12.3217 38.6572 12.2191 39.4043 12.2191 39.8438C12.2191 40.2832 12.3217 41.0449 12.4535 41.5283C12.5707 42.0117 12.8929 42.7881 13.142 43.2715C13.4056 43.7402 13.9769 44.4727 14.4164 44.8975C14.8851 45.3516 15.6176 45.8496 16.1742 46.1133C16.7015 46.3477 17.2875 46.6113 17.4926 46.6846C17.8002 46.8018 17.6683 46.8457 16.6869 46.9336C16.0424 46.9922 15.017 47.1973 14.4164 47.4023C13.8158 47.5928 12.8197 48.0322 12.2191 48.3691C11.5453 48.75 10.6957 49.4092 10.0072 50.083C9.39197 50.6982 8.63025 51.6504 8.29334 52.2217C7.97107 52.793 7.53162 53.7451 7.32654 54.3457C7.13611 54.9463 6.88709 56.0303 6.7992 56.7627C6.69666 57.4951 6.65271 58.9014 6.69666 59.9121C6.72595 60.9229 6.82849 61.9775 6.91638 62.2559C7.00427 62.5342 7.29724 63.0908 7.56091 63.501C7.82459 63.8965 8.33728 64.4385 8.70349 64.7168C9.0697 64.9805 9.69959 65.3027 10.0951 65.4199C10.6664 65.5811 11.9261 65.625 15.8519 65.625H20.8617C20.9642 58.4912 20.9935 58.1396 21.3451 56.9092C21.5502 56.1768 21.931 55.1367 22.1801 54.5654C22.4291 53.9941 23.015 52.9834 23.4545 52.2949C23.9086 51.6064 24.8314 50.5078 25.5052 49.834C26.1644 49.1748 26.7211 48.6182 26.7211 48.5889C26.7211 48.5742 26.223 48.3105 25.5931 48.0176C24.9633 47.71 24.0551 47.373 23.5717 47.2412C23.0883 47.124 22.2386 46.9775 21.6674 46.9189C20.7885 46.8457 20.7006 46.8018 21.0082 46.6846C21.2133 46.6113 21.7992 46.3477 22.3265 46.1133C22.8832 45.8496 23.6156 45.3516 24.0844 44.8975C24.5238 44.4727 25.0951 43.7402 25.3588 43.2715C25.6078 42.7881 25.9301 42.0117 26.0472 41.5283C26.1791 41.0449 26.2816 40.2832 26.2816 39.8438C26.2816 39.4043 26.1791 38.6572 26.0619 38.1885C25.9447 37.7344 25.6664 37.002 25.4467 36.5771C25.2416 36.167 24.7142 35.4492 24.3041 35.0098C23.8793 34.5703 23.1469 33.999 22.6781 33.7354C22.1947 33.4863 21.4183 33.1641 20.9349 33.0469C20.4515 32.915 19.6605 32.8125 19.1771 32.8271C18.6937 32.8271 17.932 32.9297 17.4926 33.0469ZM54.9926 33.0469C54.5531 33.1641 53.806 33.4863 53.3226 33.7354C52.8539 33.999 52.1215 34.5703 51.6967 35.0098C51.2865 35.4492 50.7592 36.167 50.5541 36.5771C50.3344 37.002 50.056 37.7344 49.9388 38.1885C49.8217 38.6572 49.7191 39.4043 49.7191 39.8438C49.7191 40.2832 49.8217 41.0449 49.9535 41.5283C50.0707 42.0117 50.3929 42.7881 50.642 43.2715C50.9056 43.7402 51.4769 44.4727 51.9164 44.8975C52.3851 45.3516 53.1176 45.8496 53.6742 46.1133C54.2015 46.3477 54.7875 46.6113 54.9926 46.6846C55.3002 46.8018 55.2123 46.8457 54.3334 46.9189C53.7767 46.9775 52.9125 47.124 52.4291 47.2412C51.9457 47.373 51.184 47.6367 50.7445 47.8418C50.3051 48.0469 49.7924 48.3105 49.6166 48.4277C49.2797 48.6328 49.2943 48.6475 50.4955 49.834C51.1693 50.5078 52.1068 51.6357 52.5756 52.3682C53.059 53.0859 53.6595 54.2139 53.9379 54.8584C54.2015 55.5029 54.5531 56.5283 54.7289 57.1289C54.9926 58.0664 55.0365 58.7549 55.0804 61.9189L55.139 65.625C64.0746 65.625 65.3343 65.5811 65.9056 65.4199C66.3158 65.3027 66.931 64.9805 67.2972 64.7168C67.6635 64.4385 68.1761 63.8965 68.4398 63.501C68.7035 63.0908 68.9965 62.5342 69.0844 62.2559C69.1722 61.9775 69.2748 60.8496 69.3041 59.7656C69.3627 58.3008 69.3187 57.4072 69.1429 56.3232C68.9965 55.5176 68.7035 54.4043 68.4984 53.833C68.2787 53.2617 67.7953 52.3535 67.4144 51.7822C67.0482 51.2109 66.2865 50.332 65.7299 49.8047C65.1293 49.248 64.2357 48.6035 63.5472 48.2373C62.9174 47.915 61.9652 47.5049 61.4379 47.3438C60.9105 47.1826 59.9584 46.9922 59.3138 46.9336C58.3324 46.8457 58.2006 46.8018 58.5082 46.6846C58.7133 46.6113 59.2992 46.3477 59.8265 46.1133C60.3832 45.8496 61.1156 45.3516 61.5843 44.8975C62.0238 44.4727 62.5951 43.7402 62.8588 43.2715C63.1078 42.7881 63.4301 42.0117 63.5472 41.5283C63.6791 41.0449 63.7816 40.2832 63.7816 39.8438C63.7816 39.4043 63.6791 38.6572 63.5619 38.1885C63.4447 37.7344 63.1664 37.002 62.9467 36.5771C62.7416 36.167 62.2142 35.4492 61.8041 35.0098C61.3793 34.5703 60.6468 33.999 60.1781 33.7354C59.6947 33.4863 58.9183 33.1641 58.4349 33.0469C57.9515 32.915 57.1605 32.8125 56.6771 32.8271C56.1937 32.8271 55.432 32.9297 54.9926 33.0469Z" fill="#4177B7"/>
</svg>
