<svg width="76" height="75" viewBox="0 0 76 75" fill="none" xmlns="http://www.w3.org/2000/svg">
<path fill-rule="evenodd" clip-rule="evenodd" d="M41.3682 0.893795C48.8828 0.879146 49.8643 0.908443 50.5234 1.12817C50.9336 1.26001 51.4902 1.50903 51.7686 1.68481C52.0469 1.86059 52.4717 2.2268 52.7061 2.50512C52.9404 2.78344 53.292 3.34008 53.4678 3.73559C53.8047 4.45337 53.8193 4.57055 53.834 13.55L55.1377 14.1799C56.1484 14.6487 56.6611 15.0149 57.3496 15.718C57.9502 16.3186 58.4336 17.0071 58.8145 17.7981C59.2393 18.6623 59.4297 19.2922 59.5615 20.2151C59.6934 21.2551 59.6787 21.6506 59.4883 22.6321C59.3564 23.2766 59.0488 24.1995 58.8145 24.6829C58.5654 25.1663 58.0527 25.928 56.9395 27.1731L58.2578 27.8323C58.9902 28.1985 60.1182 28.9163 60.7627 29.4582C61.4219 29.9856 62.4033 30.967 62.9453 31.6555C63.4873 32.3293 64.2344 33.4866 64.5859 34.2043C64.9521 34.9221 65.4063 36.1819 65.626 36.9875C65.8896 38.0569 65.9775 38.7307 65.9482 39.4778C65.9189 40.2981 65.8311 40.6057 65.5381 41.0012C65.333 41.2795 64.9522 41.6018 64.6885 41.7043C64.3223 41.8508 61.7295 41.8948 51.7686 41.8948C41.5439 41.8948 39.2441 41.8655 38.9072 41.6897C38.6875 41.5872 38.3359 41.2942 38.1016 41.0305C37.8379 40.7375 37.6768 40.342 37.6182 39.8879C37.5596 39.4631 37.6182 38.7161 37.75 38.0129C37.8818 37.3684 38.0283 36.6946 38.1455 36.1819H35.4355C33.1064 36.1819 32.623 36.1379 31.9492 35.8889C31.5391 35.7424 30.8945 35.3616 30.543 35.054C30.1621 34.717 29.7373 34.1311 28.9902 32.593V18.677C28.9902 5.34692 29.0049 4.73169 29.2686 3.95532C29.4736 3.38403 29.7812 2.91528 30.3672 2.32934C30.9824 1.72876 31.4072 1.43579 32.0664 1.20141C32.916 0.908443 33.2236 0.908443 41.3682 0.893795ZM36.3877 29.0041H43.4189C44.5029 28.2864 45.2207 27.8909 45.7188 27.6565C46.2314 27.4368 46.6416 27.2317 46.6416 27.2024C46.6416 27.1877 46.3486 26.8362 45.9824 26.4407C45.6162 26.0305 45.1328 25.342 44.8984 24.9026C44.6641 24.4631 44.3711 23.7014 44.2393 23.218C44.1074 22.7346 44.0049 21.8118 44.0049 21.1672C44.0049 20.5081 44.1074 19.6438 44.2393 19.1897C44.3711 18.7502 44.6641 18.0178 44.8838 17.5784C45.1035 17.1389 45.5576 16.4651 45.8945 16.0696L46.4951 15.3811V8.20337H36.3877V29.0041ZM49.2051 16.8313C48.9707 16.9924 48.4434 17.4612 48.0625 17.886C47.6523 18.3401 47.2275 19.0139 47.0518 19.4827C46.8174 20.1125 46.7734 20.5373 46.8174 21.4602C46.876 22.4563 46.9492 22.7786 47.3887 23.5696C47.667 24.0823 48.1064 24.6975 48.3701 24.9172C48.6191 25.1516 49.1904 25.5178 49.6006 25.7375C50.2891 26.1038 50.5381 26.1477 51.7686 26.1477C52.9844 26.1477 53.2627 26.1038 53.9658 25.7522C54.4053 25.5471 55.0645 25.0491 55.4307 24.6536C55.7822 24.2727 56.2363 23.5842 56.4414 23.1448C56.749 22.4856 56.8076 22.1194 56.8076 21.1672C56.8076 20.2151 56.7344 19.8489 56.4121 19.1457C56.1924 18.6916 55.7236 18.0178 55.3574 17.6516C54.9912 17.2854 54.3467 16.8313 53.9219 16.6262C53.4678 16.4065 52.7793 16.2307 52.208 16.1868C51.5781 16.1428 50.9775 16.1868 50.4502 16.3479C50.0107 16.4651 49.4395 16.6848 49.2051 16.8313ZM48.1797 29.6633C47.5352 29.8684 46.583 30.2932 46.0557 30.6008C45.5283 30.9084 44.7666 31.4504 44.3711 31.7873C43.9609 32.1243 43.3164 32.7834 42.9355 33.2375C42.54 33.6916 41.9102 34.717 41.5146 35.5227C41.1338 36.3284 40.7383 37.3538 40.6357 37.7932C40.5479 38.2327 40.4307 38.7161 40.4014 38.8625C40.3428 39.0969 40.958 39.1116 51.7686 39.1116C62.5498 39.1116 63.1943 39.0969 63.1943 38.8625C63.1943 38.7161 63.0625 38.1155 62.9014 37.5442C62.7402 36.9582 62.4033 36.0647 62.1543 35.5666C61.9053 35.054 61.4072 34.2483 61.0703 33.7649C60.7334 33.2815 60.1328 32.593 59.7373 32.2268C59.3418 31.8606 58.6973 31.3332 58.2871 31.0549C57.8916 30.7766 57.1006 30.3372 56.5293 30.0881C55.958 29.8245 55.0791 29.5022 54.5518 29.385C54.0244 29.2532 52.999 29.1213 52.2812 29.092C51.5635 29.0481 50.5967 29.0774 50.1572 29.1506C49.7178 29.2092 48.8242 29.4436 48.1797 29.6633ZM52.7207 42.7297C53.1309 42.7737 53.79 42.9348 54.1855 43.0813C54.5957 43.2424 55.123 43.5207 55.7969 44.0627L56.4561 43.6526C56.8223 43.4182 57.5547 43.1106 58.082 42.9788C58.8877 42.759 59.2246 42.7444 59.9863 42.8762C60.499 42.9641 61.2461 43.1838 61.6562 43.3743C62.0518 43.5647 62.7109 44.0627 63.8535 45.2346L64.5127 44.927C65.04 44.678 65.4648 44.6194 66.5635 44.6047C67.7793 44.6047 68.0576 44.6487 68.7607 45.0002C69.2002 45.2053 69.8594 45.6741 70.2256 46.0256C70.5918 46.3625 71.0898 47.051 71.3242 47.5344C71.6172 48.135 71.7637 48.7209 71.8076 49.3655C71.8516 50.01 71.793 50.5959 71.6172 51.1965C71.4707 51.6799 71.207 52.3098 71.0312 52.5881C70.8408 52.8664 70.4453 53.3352 70.1377 53.6282C69.8154 53.9211 67.9258 55.1223 65.9043 56.2795C63.8975 57.4514 59.0049 60.2786 55.0645 62.5491C51.124 64.8342 47.5498 66.8411 47.1543 67.0022C46.6123 67.2073 46.0703 67.2952 45.1035 67.2952C43.8584 67.3098 43.375 67.1926 36.0215 65.2004C28.9316 63.2961 28.2139 63.1204 27.7012 63.2668C27.4082 63.3547 27.1152 63.5159 27.0713 63.6184C27.0273 63.7063 27.1592 64.1311 27.3643 64.5266C27.5693 64.9368 27.7891 65.4934 27.833 65.7717C27.8916 66.0793 27.833 66.636 27.6865 67.134C27.5107 67.7639 27.291 68.1301 26.749 68.6575C26.2803 69.1409 24.9326 70.0051 22.5449 71.3674C20.6113 72.4661 18.6484 73.5354 18.1797 73.7405C17.7256 73.9602 17.125 74.1213 16.876 74.1213C16.6123 74.1213 16.0996 74.0188 15.7334 73.9016C15.3672 73.7844 14.8398 73.4768 14.5615 73.2131C14.2246 72.9055 12.3057 69.7122 4.23438 55.7375V54.7854C4.23438 54.1848 4.32227 53.6428 4.4834 53.3206C4.62988 53.0422 4.95215 52.5735 5.23047 52.2952C5.49414 52.0168 7.3252 50.845 9.30273 49.717C11.2656 48.5745 13.1699 47.4905 13.5361 47.3147C14.0195 47.0657 14.459 46.9631 15.1475 46.9631C15.8799 46.9485 16.2607 47.0364 16.832 47.3147C17.3887 47.593 17.6963 47.886 18.1504 48.6038C18.4727 49.1018 18.7803 49.512 18.8535 49.512C18.9121 49.512 20.8164 48.428 23.1016 47.1096C25.3721 45.7913 27.5693 44.5461 27.9648 44.3411C28.3604 44.1213 29.0488 43.887 29.4883 43.7844C29.9277 43.6965 30.6162 43.6526 31.0264 43.7112C31.4365 43.7551 34.8057 44.6194 45.25 47.4172L47.2275 45.4836C48.5605 44.1799 49.4395 43.4475 49.9375 43.2278C50.3477 43.0373 50.9629 42.8323 51.3291 42.7737C51.6953 42.7004 52.3252 42.6858 52.7207 42.7297ZM50.9629 45.8205C50.8018 45.9084 50.1133 46.5383 49.4248 47.2268L48.1797 48.4866C49.1172 49.4534 49.4395 49.8489 49.5127 49.9807C49.6299 50.2004 49.9814 49.9075 51.7686 48.135L53.8926 46.0256C53.2188 45.6887 52.8086 45.5569 52.5742 45.5129C52.3398 45.469 51.9297 45.4836 51.6953 45.5422C51.4609 45.6008 51.124 45.718 50.9629 45.8205ZM54.8447 48.9846C53.2773 50.552 52.0176 51.885 52.0615 51.9289C52.1055 51.9729 54.1123 50.8743 56.5293 49.4973C58.9463 48.1057 61.0264 46.8899 61.1436 46.7873C61.334 46.6116 61.334 46.5676 61.1436 46.3479C61.0264 46.2161 60.6602 45.9817 60.3379 45.8352C60.0156 45.6887 59.5469 45.5569 59.3125 45.5569C59.0781 45.5569 58.6094 45.6887 58.2871 45.8352C57.9209 46.011 56.6025 47.2122 54.8447 48.9846ZM25.9873 48.6624C24.2588 49.6584 22.2227 50.845 21.4756 51.2844L20.1279 52.0754C20.5674 52.7493 21.7539 54.8 23.0576 57.0559C24.3613 59.3118 25.46 61.1721 25.4893 61.1868C25.5186 61.2161 25.8994 61.0549 26.3242 60.8352C26.9395 60.5129 27.2764 60.4397 28.1113 60.4543C28.9609 60.4543 30.4697 60.8059 36.9004 62.5491C43.1846 64.2336 44.7959 64.6145 45.3232 64.5559C45.6895 64.512 46.2754 64.3362 46.6416 64.1604C47.0078 63.97 51.915 61.1575 57.5547 57.8909C63.1943 54.6243 67.9551 51.8557 68.1455 51.7239C68.3359 51.592 68.6143 51.2258 68.7754 50.9036C68.9219 50.5813 69.0537 50.0539 69.0537 49.7317C69.0537 49.3948 68.9072 48.8967 68.7168 48.5598C68.5264 48.2375 68.1309 47.8274 67.8086 47.6516C67.457 47.4465 66.9736 47.3147 66.6074 47.3147C66.2559 47.3147 65.7578 47.4172 65.5088 47.5491C65.2451 47.6809 61.4365 49.8782 57.042 52.4123C52.6475 54.9612 48.751 57.1584 48.3555 57.3049C47.9746 57.4514 47.3887 57.5686 47.0518 57.5686C46.7002 57.5686 43.5215 56.8069 39.9766 55.884C36.4316 54.9465 33.3408 54.1116 33.1064 54.009C32.8721 53.9065 32.5938 53.6282 32.4766 53.3938C32.3447 53.1301 32.2861 52.7639 32.3447 52.4709C32.3887 52.1926 32.5937 51.885 32.8281 51.7092C33.0625 51.5334 33.3994 51.4016 33.6045 51.4163C33.8096 51.4163 36.4756 52.0754 39.5371 52.8811C42.5986 53.6868 45.3086 54.3459 45.543 54.3459C45.7773 54.3459 46.2022 54.2141 46.4512 54.053C46.7148 53.8918 47.0371 53.5549 47.1543 53.3206C47.2715 53.0862 47.374 52.6321 47.374 52.3245C47.374 52.0315 47.2568 51.6067 47.1104 51.387C46.9785 51.1672 46.7295 50.8889 46.5684 50.7717C46.4072 50.6545 42.8184 49.6438 38.585 48.5012C34.3516 47.3733 30.7041 46.4358 30.4551 46.4504C30.2061 46.4504 29.8252 46.5383 29.5762 46.6409C29.3271 46.7434 27.7158 47.6516 25.9873 48.6624Z" fill="#4177B7"/>
</svg>
