<svg width="47" height="75" viewBox="0 0 47 75" fill="none" xmlns="http://www.w3.org/2000/svg">
<path d="M39.3484 8.0763C39.333 7.984 39.4866 7.73787 39.6863 7.53789C39.886 7.33791 40.101 7.18408 40.1778 7.18408C40.2392 7.18408 40.7154 7.69172 41.2376 8.29166C41.7444 8.90698 42.5278 9.96841 42.9885 10.6453C43.6643 11.6759 43.7719 11.9221 43.6183 12.1528C43.5261 12.2913 43.3111 12.4605 43.1421 12.522C42.9732 12.5835 42.3742 13.0912 41.8059 13.6757C41.2222 14.2449 40.7614 14.7372 40.7614 14.7525C40.7614 14.7833 39.9628 15.5986 38.9644 16.5831C37.9661 17.5676 36.5684 18.906 35.8465 19.5828C35.1246 20.2443 34.0187 21.2903 33.389 21.8903C32.7593 22.4902 31.2694 23.8747 30.0868 24.9515C28.9041 26.0283 25.6172 29.0434 22.7911 31.6277C19.965 34.2275 16.7549 37.1349 15.6491 38.0886C14.5432 39.0577 13.3452 40.0884 12.9766 40.3961C12.6079 40.7037 12.0857 41.1652 11.8246 41.4267C11.5635 41.6882 10.857 42.2266 10.2733 42.6266C9.68967 43.0266 9.16746 43.3496 9.12138 43.3342C9.0753 43.3342 8.84492 43.0112 8.58381 42.5958C8.33806 42.1959 7.69297 41.3344 6.20312 39.4885L7.40115 38.2886C8.04623 37.6425 10.2426 35.5812 12.27 33.7198C14.2974 31.8585 17.1389 29.2587 18.5673 27.9358C19.9957 26.6282 22.0846 24.7207 23.1905 23.7055C24.2963 22.7056 26.1241 21.0134 27.2607 19.9674C28.3972 18.906 30.2864 17.1369 31.4691 16.0447C32.6518 14.9371 34.9096 12.7374 36.4916 11.1529C38.0736 9.55307 39.3637 8.18398 39.3484 8.0763Z" fill="#4177B7"/>
<path d="M33.8345 4.35321C33.8192 4.19938 33.9574 3.83019 34.1417 3.5533C34.326 3.26102 34.5718 3.03027 34.6639 3.03027C34.7715 3.03027 35.3705 3.3687 36.0002 3.76866C36.6299 4.184 37.6744 4.93777 38.3041 5.44541C38.9338 5.96843 39.6096 6.55299 40.1472 7.10678L39.7632 7.49135C39.5482 7.70672 39.3792 7.96823 39.3792 8.07591C39.3792 8.16821 38.0737 9.55268 36.4917 11.1525C34.9097 12.737 32.6519 14.9367 31.4692 16.0443C30.2866 17.1365 28.3974 18.9056 27.2608 19.967C26.1242 21.013 24.2964 22.7052 23.1906 23.7051C22.0847 24.7204 20.0112 26.6279 18.5674 27.9354C17.139 29.2584 14.2976 31.8581 12.2702 33.7194C10.2427 35.5808 8.04636 37.6575 6.18789 39.565L5.88071 39.1804L5.85953 39.1534C5.66826 38.9097 5.12403 38.2161 4.63661 37.5652C4.12975 36.8883 3.48466 35.9038 3.19284 35.3808C2.73206 34.504 2.68598 34.3809 2.88565 34.0732C2.99317 33.8733 3.83793 32.981 4.75948 32.0888C5.68104 31.1966 7.37055 29.5968 8.50714 28.5507C9.64372 27.4893 12.347 25.0126 14.4972 23.0282L14.7421 22.804C16.8465 20.8771 19.3611 18.5745 20.4106 17.5826C21.5164 16.5673 23.2981 14.906 24.404 13.8907C25.4945 12.86 27.0458 11.414 27.8444 10.6449C28.6431 9.89111 30.3326 8.22974 31.5767 6.95295C33.0666 5.44541 33.8499 4.53781 33.8345 4.35321Z" fill="#4177B7"/>
<path d="M44.1711 24.4743C44.5397 24.1205 45.2155 23.6129 45.6763 23.3514C46.1371 23.0899 46.6132 22.8745 46.7207 22.8745C46.8743 22.8745 46.905 23.2437 46.8282 24.6128C46.7668 25.5512 46.6439 26.8895 46.521 27.5663C46.4135 28.2432 46.1831 29.3662 45.6763 31.3352L45.0158 31.5044C44.6626 31.5967 44.1864 31.7659 43.9407 31.889C43.7103 32.012 43.526 32.2274 43.526 32.3812C43.526 32.5197 43.311 32.7504 43.0345 32.8889C42.758 33.0273 42.1129 33.4888 41.6061 33.9041C41.0992 34.3349 39.7783 35.4886 38.6878 36.4885C37.5973 37.473 36.3839 38.5037 36 38.7652C35.616 39.0267 35.2781 39.2882 35.232 39.3497C35.1859 39.4113 34.848 39.5805 34.464 39.7189C34.0801 39.8574 33.6654 40.0574 33.5425 40.1804C33.4196 40.2881 33.1278 40.4266 32.882 40.4727C32.5595 40.5496 32.4673 40.5035 32.4673 40.3035C32.4673 40.1035 32.2677 40.2266 31.085 41.4111V40.1804L30.3938 40.8727C29.7641 41.488 29.7027 41.6418 29.7027 42.2571C29.7129 42.7186 29.631 43.0263 29.4569 43.1801C29.3187 43.3032 29.0729 43.6878 28.5968 44.6415L29.4416 43.8724L29.1958 44.3338C29.0576 44.58 28.8118 45.0107 28.6429 45.2568C28.4586 45.503 28.3203 45.8568 28.3203 46.026C28.3203 46.1952 27.9824 46.6413 27.5831 47.0259C27.1684 47.4105 26.6155 47.7796 26.3083 47.8412C26.0164 47.9027 25.4174 48.2719 24.1733 49.3333V48.3334L23.7586 48.7488C23.5129 48.9795 23.2671 49.1795 23.175 49.1795C23.0828 49.1795 22.7296 49.4103 22.3609 49.7179C22.0077 50.0102 21.6544 50.2563 21.5623 50.2563C21.4701 50.2563 21.4087 50.164 21.4087 50.0717C21.3933 49.9487 21.3319 49.964 21.209 50.1333C21.1015 50.2871 20.8404 50.3794 20.5639 50.364C20.1799 50.3332 20.1031 50.3948 20.0571 50.7178C20.0263 50.9332 19.9803 51.1947 19.9495 51.3024C19.8983 51.4254 19.7806 51.4408 19.5963 51.3485C19.412 51.2562 19.1816 51.3177 18.7976 51.5639C18.4392 51.7895 18.1576 51.8664 17.9528 51.7946C17.7839 51.7331 17.5535 51.7485 17.446 51.8562C17.3385 51.9485 17.2463 52.2715 17.2617 53.1022L18.6287 51.7177L18.6747 53.2099C18.7054 54.0252 18.6901 54.6559 18.644 54.6251C18.5979 54.5943 18.429 54.7328 18.2447 54.9174C18.0757 55.102 17.8453 55.5327 17.7532 55.8711C17.6457 56.2096 17.5228 56.5634 17.4613 56.6403C17.3846 56.7326 16.7548 57.3171 16.0329 57.9478C15.3111 58.5785 14.5892 59.1785 14.4202 59.2708C14.2513 59.3631 13.6983 59.9169 13.1915 60.5168C12.6846 61.1014 12.1931 61.7167 12.101 61.8859C11.9935 62.0397 11.8706 62.1474 11.8245 62.1013C11.7631 62.0551 11.717 61.4398 11.6863 60.7168C11.6709 59.6861 11.717 59.2862 11.9474 58.8708C12.101 58.5785 12.4696 58.0863 13.2836 57.2556L12.7307 56.6864C12.4389 56.3634 12.1624 55.8865 12.1163 55.6404C12.0703 55.3943 12.1317 55.0712 12.2238 54.9328C12.3928 54.7328 12.3774 54.6559 12.147 54.5482C11.9474 54.4405 11.8859 54.2098 11.8859 53.456C11.8706 52.5022 11.8859 52.4715 12.531 51.9331C13.084 51.4716 13.2529 51.41 13.6062 51.5177C13.9441 51.61 14.0823 51.5793 14.2205 51.3485C14.3281 51.1793 14.5124 51.087 14.6045 51.1178C14.712 51.1485 15.3418 50.687 15.9869 50.1025C16.7855 49.3949 17.2002 49.1026 17.2156 49.2564C17.2463 49.4256 17.3999 49.3795 17.83 49.0257L17.8311 49.0247C18.1533 48.7635 18.4752 48.5026 18.5672 48.4257C18.6594 48.3642 19.0126 48.1642 19.3659 47.9796C19.7345 47.795 20.0417 47.5951 20.0571 47.5335C20.0878 47.4566 20.3642 47.2259 20.6714 46.9951C20.994 46.749 21.3472 46.349 21.4701 46.1029C21.593 45.826 21.6083 45.6876 21.5008 45.7491C21.4087 45.826 21.6237 45.4568 21.977 44.9492C22.3149 44.4415 22.791 43.857 23.0214 43.6416C23.2518 43.4263 23.5129 43.1186 23.5897 42.9494C23.6972 42.734 23.605 42.7955 22.791 43.5647V41.1803L23.4361 40.6112C23.7894 40.2881 24.1119 40.042 24.158 40.0574C24.2041 40.0727 24.4191 39.9189 24.6341 39.7036C24.8491 39.5036 25.141 39.3344 25.2792 39.3344C25.4328 39.3344 25.5557 39.442 25.5557 39.5651C25.5557 39.7343 25.74 39.6728 26.8612 38.8575L26.938 39.642L27.6292 39.0729C28.0132 38.7498 28.3357 38.5344 28.3203 38.6114C28.3203 38.6729 28.5354 38.5806 28.7811 38.4114C29.0269 38.2422 29.3033 38.1037 29.3955 38.1037C29.4876 38.1037 29.5952 38.0114 29.6566 37.8884C29.7334 37.7807 29.9945 37.5807 30.2402 37.4576C30.486 37.3192 30.8085 37.1192 30.9314 37.0115C31.0543 36.8885 31.5765 36.4577 32.0834 36.027C32.5749 35.6117 34.3412 34.0118 36 32.5043C37.6434 30.9814 40.0087 28.7662 41.2682 27.5817C42.5123 26.3818 43.526 25.3512 43.526 25.2589C43.526 25.1666 43.8178 24.8128 44.1711 24.4743Z" fill="#4177B7"/>
<path d="M28.2895 1.67692C28.2742 1.33849 28.3509 1.01545 28.4585 0.907766C28.5813 0.815468 28.8578 0.769319 29.0728 0.815468C29.2879 0.861617 30.0251 1.07698 30.7009 1.29234C31.3767 1.5077 32.5287 1.95381 34.6175 2.87679L34.2335 3.44597C34.0185 3.76901 33.8496 4.16897 33.8496 4.33818C33.8496 4.53816 33.0202 5.49191 31.5764 6.9533C30.3323 8.21471 28.6428 9.87608 27.8441 10.6452C27.0454 11.4144 25.4941 12.8604 24.4036 13.8911C23.2978 14.9063 21.5161 16.5677 20.4102 17.583C19.3607 18.5749 16.8459 20.8777 14.7415 22.8046L14.4969 23.0286C12.3466 25.013 9.64338 27.4897 8.50679 28.5511C7.37021 29.5971 5.61925 31.2585 4.6209 32.243C3.62255 33.2275 2.80851 34.0736 2.82387 34.1505C2.82387 34.212 2.77779 34.2582 2.71636 34.2582C2.63956 34.2736 2.39381 33.8275 2.14806 33.3044C1.90232 32.766 1.50297 31.8123 1.27259 31.1816C1.05756 30.5509 0.735012 29.4741 0.320312 27.5666L1.0422 26.9205C1.42618 26.5513 1.82552 26.259 1.90232 26.259C1.99447 26.259 2.05591 26.3975 2.05591 26.5667C2.05591 26.8589 2.07127 26.8743 2.53204 26.6128C2.79315 26.459 3.1157 26.2282 3.25393 26.1052C3.39216 25.9667 3.76078 25.7052 4.05261 25.4899C4.34444 25.2899 4.83593 24.9053 5.12776 24.6284C5.41958 24.3669 6.60225 23.2901 7.73883 22.244C8.87541 21.198 11.3329 18.9213 13.1914 17.1984C15.0498 15.4755 17.5688 13.1219 18.7821 11.9682C20.0109 10.8144 21.9769 8.92233 23.1595 7.7686C24.3575 6.59949 25.3713 5.64574 25.448 5.64574C25.5095 5.64574 25.5556 5.55344 25.5556 5.46115C25.5709 5.35346 25.8781 4.99965 26.2467 4.69199C26.6307 4.36895 26.9379 4.03052 26.9379 3.95361C26.9379 3.87669 27.2451 3.46135 27.6291 3.03063C28.2127 2.36915 28.3202 2.16918 28.2895 1.67692Z" fill="#4177B7"/>
<path d="M43.9418 18.2441C44.1875 18.0287 44.679 17.6288 45.063 17.3673C45.4316 17.0904 45.8002 16.875 45.877 16.875C45.9385 16.875 46.0921 17.3826 46.2149 17.9826C46.3378 18.5979 46.5068 19.5978 46.5836 20.1824C46.6604 20.7669 46.7679 21.5976 46.8754 22.7975L45.9231 23.2436C45.4163 23.5051 44.6483 24.0127 44.249 24.3973C43.8496 24.7819 43.5117 25.1665 43.5271 25.2588C43.5271 25.3511 42.5134 26.3817 41.2693 27.5816C40.0098 28.7661 37.6445 30.9812 36.001 32.5042C34.3422 34.0117 32.5759 35.5962 32.0844 36.0269C31.5776 36.4422 31.0554 36.8883 30.9325 37.0114C30.8096 37.1191 30.4871 37.3191 30.2413 37.4575C29.9956 37.5806 29.7345 37.7806 29.6577 37.8882C29.5962 38.0113 29.4887 38.1036 29.3966 38.1036C29.3044 38.1036 29.0279 38.242 28.7822 38.4113C28.5364 38.5805 28.3214 38.6728 28.3214 38.5958C28.3368 38.5343 28.0142 38.7497 26.9391 39.6419L26.8623 38.8574L26.2018 39.3342C25.7411 39.6727 25.5568 39.7342 25.5568 39.565C25.5568 39.4419 25.4339 39.3342 25.2803 39.3342C25.1421 39.3342 24.8502 39.5034 24.6352 39.7034C24.4202 39.9188 24.2051 40.0726 24.1591 40.0572C24.113 40.0419 23.7904 40.288 22.7921 41.1802V43.5646L23.2682 43.1031C23.6061 42.7954 23.6983 42.7339 23.5908 42.9492C23.514 43.1185 23.2529 43.4261 23.0225 43.6415C22.7921 43.8568 22.3159 44.4414 21.978 44.949C21.6248 45.4567 21.4251 45.8259 21.5326 45.749C21.6555 45.672 21.6401 45.7797 21.4865 46.1028C21.3637 46.3489 20.9951 46.7489 20.6725 46.9796C20.3653 47.2257 20.0889 47.4565 20.0581 47.518C20.0428 47.5949 19.7356 47.7949 19.367 47.9795C19.0137 48.1641 18.6604 48.3641 18.5683 48.4256C18.4762 48.5025 18.1542 48.7636 17.8319 49.0249L17.831 49.0256C17.401 49.3794 17.2474 49.4255 17.2167 49.2563C17.2013 49.1025 16.7866 49.3947 15.9879 50.1024C15.3428 50.6869 14.7131 51.1484 14.6056 51.1176C14.5135 51.0869 14.3291 51.1792 14.2216 51.3484C14.0834 51.5791 13.9452 51.6099 13.6073 51.5176C13.254 51.4099 13.085 51.4715 11.8717 52.4867L11.887 52.0252C11.887 51.7791 11.7795 50.9023 11.6566 50.1024C11.4109 48.7025 11.4262 48.6256 11.7027 48.3333C11.9177 48.1026 11.9638 47.918 11.8717 47.6411C11.8102 47.4257 11.7641 46.9796 11.7334 46.0259L10.8272 46.9488L10.305 45.7951C9.81352 44.7183 9.79816 44.626 10.0285 44.3491C10.1975 44.1491 10.3972 44.103 10.689 44.1645C11.0269 44.2414 11.1037 44.3183 11.0423 44.5645C10.9962 44.7491 11.0423 44.8721 11.1651 44.8721C11.2726 44.8721 11.4416 44.7798 11.5491 44.6721C11.6566 44.5799 11.7334 44.3491 11.7334 44.1799C11.7334 44.0107 11.9792 43.6876 12.271 43.4415C12.5628 43.2108 12.87 43.0262 12.9622 43.0262C13.0543 43.0262 13.1158 42.9185 13.1158 42.7954C13.1158 42.657 13.3154 42.5185 13.5919 42.4416C13.853 42.3801 14.1295 42.2416 14.2063 42.1339C14.2831 42.0416 14.4674 41.9801 14.6056 42.0263C14.7899 42.0878 15.22 41.8109 15.9111 41.1802C16.4948 40.6726 17.017 40.2572 17.1092 40.2572C17.2013 40.2572 17.2628 40.3649 17.2628 40.488C17.2628 40.6879 17.3088 40.6879 17.6775 40.5033C17.9232 40.3803 18.2765 40.088 18.4915 39.8726C18.7065 39.6419 19.0598 39.365 19.2902 39.2419C19.5359 39.1189 19.7817 39.0266 19.8738 39.0266C19.966 39.0266 20.0274 39.1343 20.0274 39.2573C20.0274 39.4111 20.2578 39.2932 20.7186 38.9035C21.2715 38.4574 21.4251 38.3959 21.4098 38.5958C21.4098 38.8112 21.4865 38.842 21.7477 38.7651C21.9473 38.7189 22.4388 38.442 22.8689 38.1805C23.2836 37.9036 25.8793 35.6269 28.6286 33.1041C31.3779 30.5813 34.4805 27.72 35.5403 26.7355C36.6 25.751 38.1821 24.2589 39.0575 23.4128C39.9484 22.5667 41.3153 21.2284 42.1294 20.4285C42.9281 19.6439 43.5732 18.9056 43.5578 18.8133C43.5424 18.721 43.7114 18.4595 43.9418 18.2441Z" fill="#4177B7"/>
<path d="M21.4094 0.769083C21.4094 0.369124 21.4862 0.24606 21.7626 0.199911H21.7473C21.9469 0.153762 22.9914 0.153762 24.0972 0.184528C25.1877 0.230677 26.5394 0.322975 27.0923 0.415274C27.6452 0.507572 28.2289 0.615253 28.3978 0.661402C28.6436 0.722934 28.6589 0.784467 28.5053 0.922914C28.3978 1.0306 28.321 1.36902 28.321 1.67668C28.321 2.15356 28.1981 2.39969 27.6299 3.03039C27.2459 3.44573 26.9387 3.87646 26.9387 3.95337C26.9387 4.03029 26.6315 4.36871 26.2475 4.67637C25.8789 4.99942 25.5717 5.35323 25.5564 5.44553C25.5564 5.55321 25.5103 5.64551 25.4335 5.64551C25.372 5.64551 24.3583 6.59926 23.1603 7.76837C21.9777 8.92209 20.0117 10.8142 18.7829 11.9679C17.5695 13.1217 15.0506 15.4753 13.1922 17.1982C11.3337 18.9211 8.87621 21.1978 7.73963 22.2438C6.60304 23.2899 5.42038 24.3667 5.12856 24.6282C4.83673 24.9051 4.34523 25.2896 4.05341 25.4896C3.76158 25.705 3.39296 25.9665 3.25473 26.1049C3.1165 26.228 2.79395 26.4588 2.53284 26.6126C2.07207 26.8741 2.05671 26.8587 2.05671 26.5664C2.05671 26.3972 2.01063 26.2588 1.93383 26.2588C1.8724 26.2434 1.50377 26.5203 1.08907 26.8741C0.689734 27.2125 0.336471 27.4433 0.305753 27.3817C0.259675 27.3048 0.167519 26.3972 0.0753638 25.3358C-0.032151 24.1052 -0.0475102 22.8899 0.182879 20.4901L1.07371 19.6748C1.7188 19.0749 1.99527 18.9211 2.01063 19.0903C2.05671 19.3056 2.11814 19.3056 2.5482 19.121C2.82467 19.0134 3.39296 18.6749 3.82302 18.398C4.23772 18.1058 4.75993 17.7366 4.95961 17.5674C5.15928 17.3981 5.68149 16.952 6.11155 16.5828C6.54161 16.2137 7.09454 15.7368 7.35565 15.5214C7.6014 15.2907 8.26184 14.7061 8.81478 14.1985C9.36771 13.6908 10.7808 12.3833 11.9634 11.2757C13.1461 10.1681 15.4346 7.9222 17.0627 6.30698C18.6908 4.67637 20.027 3.23037 20.027 3.10731C20.027 2.98424 20.3342 2.50737 20.7182 2.06126C21.2404 1.4767 21.4094 1.13828 21.4094 0.769083Z" fill="#4177B7"/>
<path d="M43.8791 31.9196C44.0634 31.8273 44.4935 31.6581 44.816 31.5658C45.1539 31.4581 45.4304 31.3966 45.4458 31.4274C45.4458 31.4581 45.3536 31.8119 45.2307 32.2119C45.1232 32.6272 44.7392 33.5041 44.4013 34.1809C44.0788 34.8578 43.4337 35.9653 42.9883 36.6422C42.5429 37.3191 41.5752 38.5651 40.838 39.4111C40.1007 40.2572 39.1638 41.4263 38.7491 42.0263C38.2576 42.7185 37.9965 42.9954 37.9965 42.7954C37.9965 42.5185 37.9658 42.5339 37.5818 42.9031C37.3361 43.1338 37.0289 43.3338 36.8907 43.3338C36.7371 43.3338 36.6142 43.2261 36.6142 43.1031C36.6142 42.9031 36.5374 42.9185 36.0459 43.1492C35.7234 43.2877 35.0936 43.6723 34.6636 43.9953C34.0953 44.3953 33.8495 44.6721 33.8342 45.2567L34.6329 44.4876L34.2028 45.2721C33.9724 45.6874 33.4809 46.3181 33.1123 46.6566C32.7437 46.995 32.4518 47.3949 32.4672 47.5642C32.4672 47.7334 32.3136 48.0257 32.1293 48.2102C31.9296 48.3948 31.5917 48.5641 31.3767 48.5948C31.1463 48.6256 30.8391 48.7487 30.6855 48.8871C30.5166 49.0255 30.2555 49.1948 30.0865 49.2563C29.9176 49.3178 29.5797 49.364 29.3186 49.3486C28.9653 49.3332 28.6427 49.5178 27.9362 50.1177C27.0147 50.9177 27.0147 50.9177 26.9839 50.5177C26.9532 50.2408 26.8508 50.1024 26.6768 50.1024C26.5232 50.1024 26.216 50.3023 25.9702 50.5331C25.6323 50.8715 25.5555 51.0869 25.5555 52.3329L27.0147 50.9484L26.2928 51.7176C25.7552 52.2868 25.5555 52.6098 25.5555 52.9482C25.5555 53.2866 25.3559 53.6097 24.8183 54.1789C24.3575 54.6711 24.3114 54.748 25.2637 53.8712L25.018 54.5634C24.8337 55.1172 24.5111 55.5018 23.4513 56.4402C22.6987 57.0863 21.7925 58.0092 21.4085 58.5015C21.0246 58.9938 20.5484 59.5783 20.3334 59.7937C20.1184 60.009 19.6883 60.5013 19.3658 60.8859C19.0432 61.2551 18.736 61.5627 18.6746 61.5627C18.6132 61.5627 18.306 61.855 17.9834 62.2242C17.6762 62.578 17.3691 62.8395 17.3076 62.7934C17.2308 62.7626 16.9236 63.0395 16.6165 63.4087C16.2939 63.7933 16.0021 64.0855 15.956 64.0702C15.9099 64.0394 15.5413 64.3317 15.142 64.7162C14.7426 65.1008 14.1436 65.6085 13.8057 65.87C13.4678 66.1161 13.1913 66.3007 13.176 66.2546C13.176 66.2084 13.0377 66.2853 12.8842 66.4084C12.7459 66.5314 12.4695 66.9929 12.2698 67.4083C12.0701 67.839 11.8858 68.2851 11.8397 68.4082C11.7937 68.5312 11.7322 68.2236 11.7169 67.7159C11.6861 67.2083 11.6861 66.5622 11.7015 66.3007C11.7169 66.0238 11.8397 65.5623 11.978 65.3008C12.1162 65.0239 12.3927 64.6239 12.9917 64.024L11.809 62.378L12.1162 61.8704C12.2851 61.5781 12.8534 60.8705 13.391 60.2705C13.9132 59.6706 14.4354 59.1784 14.543 59.1784C14.6351 59.163 15.3109 58.6399 16.0328 57.9785C16.7547 57.3324 17.3844 56.7325 17.4612 56.6402C17.5227 56.5632 17.6455 56.2094 17.753 55.871C17.8452 55.5326 18.0756 55.1018 18.2445 54.9173C18.4288 54.7327 18.5978 54.5942 18.6439 54.625C18.69 54.6557 18.7053 54.025 18.6285 51.7176L17.2615 53.1021L17.2462 52.5636C17.2462 52.2714 17.3383 51.9483 17.4459 51.856C17.5534 51.7483 17.7838 51.733 17.9527 51.7945C18.1575 51.8663 18.4391 51.7894 18.7975 51.5637C19.1814 51.3176 19.4118 51.2561 19.6115 51.3484C19.7856 51.4407 19.8982 51.4253 19.9494 51.3022C19.9801 51.1946 20.0262 50.933 20.0569 50.7177C20.103 50.3946 20.1798 50.3331 20.5638 50.3639C20.8402 50.3793 21.1014 50.287 21.2089 50.1331C21.3317 49.9639 21.3932 49.9485 21.4085 50.0562C21.4085 50.1639 21.4853 50.2562 21.5621 50.2562C21.6543 50.2562 22.0076 50.0101 22.3762 49.7178C22.7294 49.4101 23.0981 49.1794 23.1749 49.1794C23.267 49.1794 23.5128 48.9794 24.1732 48.3333V49.3332L24.9872 48.6564C25.4173 48.2718 26.0163 47.9026 26.3081 47.8411C26.6153 47.7795 27.1683 47.4103 27.583 47.0258C27.9823 46.6412 28.3202 46.1951 28.3202 46.0259C28.3202 45.8566 28.4584 45.5028 28.6427 45.2567C28.8117 45.0106 29.0574 44.5799 29.4414 43.8722L28.5967 44.6414L28.9039 44.0261C29.0728 43.6876 29.3186 43.3031 29.4568 43.18C29.6309 43.0262 29.7128 42.7185 29.7025 42.257C29.7025 41.6417 29.764 41.4879 31.0849 40.1803V41.4109L31.776 40.7187C32.2675 40.2265 32.4672 40.1034 32.4672 40.288C32.4672 40.5033 32.5594 40.5495 32.8973 40.4726C33.1276 40.4264 33.4195 40.288 33.5423 40.1803C33.6652 40.0572 34.0799 39.8573 34.4639 39.7188C34.8479 39.5804 35.1858 39.4111 35.2319 39.3496C35.2779 39.2881 35.6158 39.0266 35.9998 38.7651C36.3838 38.5036 37.5972 37.4729 38.6877 36.4884C39.7936 35.4885 41.0991 34.3347 41.606 33.904C42.1128 33.4887 42.7579 33.0272 43.0344 32.8887C43.3108 32.7503 43.5259 32.5195 43.5259 32.3811C43.5259 32.2273 43.6795 32.0273 43.8791 31.9196Z" fill="#4177B7"/>
<path d="M36.8762 43.334C37.0298 43.334 37.3216 43.1647 37.5367 42.934C37.7978 42.6571 37.9207 42.5956 37.9667 42.7494C37.9974 42.8571 37.6749 43.6416 37.2602 44.4877C36.8301 45.3338 36.3233 46.5182 36.1083 47.1028C35.9086 47.7027 35.6168 48.7334 35.4785 49.4103C35.3249 50.0871 35.1867 50.7947 35.1406 50.9947C35.0792 51.3178 35.0178 51.3331 32.4835 51.287L31.7769 51.9638C31.0858 52.6253 31.0858 52.6561 31.0858 53.6406C31.0858 54.6251 31.0858 54.6559 30.3946 55.3327C29.811 55.9173 29.7034 56.1173 29.7034 56.6095C29.7034 57.1479 29.5959 57.271 27.9064 58.7631C26.9234 59.6246 25.6179 60.7783 25.0189 61.3321C24.4199 61.8859 23.2833 62.8858 22.5 63.5627C21.7301 64.2279 20.2927 65.5171 19.2666 66.4374L19.2131 66.4854C18.184 67.4238 16.8785 68.6544 16.2948 69.2544C15.7265 69.8543 15.1736 70.5312 15.0661 70.7619C14.9125 71.1311 14.8203 71.1773 14.4671 71.1157C14.2213 71.0696 13.7298 70.8081 13.3458 70.5619C12.9619 70.3158 12.4857 69.8082 12.2707 69.4544C12.071 69.0852 11.8867 68.6544 11.8867 68.4852C11.8867 68.316 12.071 67.8084 12.2707 67.3776C12.4857 66.9315 12.7468 66.5162 12.8544 66.4547C12.9465 66.3931 13.0694 66.3316 13.1155 66.3316C13.1615 66.3316 13.4687 66.1162 13.8066 65.8701C14.1445 65.6086 14.7435 65.101 15.1429 64.7164C15.5422 64.3318 15.9108 64.0395 15.9569 64.0703C16.003 64.0857 16.2948 63.7934 16.6174 63.4088C16.9246 63.0396 17.2317 62.7627 17.3085 62.7935C17.37 62.8396 17.6772 62.5781 17.9843 62.2243C18.3069 61.8551 18.6141 61.5629 18.6755 61.5629C18.7369 61.5629 19.0441 61.2552 19.3667 60.886C19.6892 60.5014 20.1193 60.0092 20.3343 59.7938C20.5493 59.5784 21.0255 58.9939 21.4095 58.5016C21.7934 58.0094 22.6996 57.0864 23.4522 56.4403C24.512 55.5019 24.8346 55.1174 25.2646 53.8713L24.681 54.4097C24.3124 54.7482 24.3584 54.6713 24.8192 54.179C25.3568 53.6098 25.5565 53.2868 25.5565 52.9484C25.5565 52.6099 25.7561 52.2869 27.0156 50.9486L25.5565 52.333V51.6408C25.5565 51.087 25.6332 50.8716 25.9712 50.5332C26.2169 50.3025 26.5241 50.1025 26.6777 50.1025C26.8517 50.1025 26.9541 50.2409 26.9849 50.5178C27.0156 50.9178 27.0156 50.9178 27.9371 50.1179C28.6437 49.5179 28.9662 49.3333 29.3195 49.3487C29.5652 49.3641 29.9185 49.318 30.0874 49.2564C30.2564 49.1949 30.5175 49.0257 30.6864 48.8872C30.84 48.7488 31.1472 48.6257 31.3776 48.595C31.5926 48.5642 31.9305 48.395 32.1302 48.2104C32.3145 48.0258 32.4681 47.7335 32.4681 47.5643C32.4528 47.3951 32.7446 46.9951 33.1132 46.6567C33.4818 46.3183 33.9733 45.6876 34.6338 44.4877L33.8351 45.2568L33.8504 44.9184C33.8504 44.6723 34.0962 44.3954 34.6491 43.9954C35.0945 43.6724 35.7243 43.2878 36.0315 43.1494C36.5383 42.9186 36.6151 42.9032 36.6151 43.1032C36.6151 43.2263 36.738 43.334 36.8762 43.334Z" fill="#4177B7"/>
<path d="M16.9084 1.10766C17.661 0.8923 18.7822 0.615406 19.412 0.492341C20.0417 0.38466 20.7482 0.276979 20.9786 0.276979C21.3626 0.261596 21.4087 0.323128 21.4087 0.753853C21.4087 1.13843 21.2397 1.47686 20.7175 2.06141C20.3335 2.50752 20.0263 2.98439 20.0263 3.10746C20.0263 3.23052 18.6901 4.67653 17.062 6.29175C15.4339 7.92235 13.1454 10.1683 11.9627 11.2759C10.7801 12.3834 9.367 13.691 8.81407 14.1986C8.26114 14.7063 7.61605 15.2908 7.35494 15.5216C7.09384 15.7369 6.5409 16.2138 6.11084 16.583C5.68078 16.9522 5.15857 17.3983 4.9589 17.5675C4.75923 17.7367 4.23701 18.1059 3.82231 18.3982C3.39226 18.6751 2.82396 19.0135 2.5475 19.1212C2.11744 19.3058 2.056 19.3058 2.00992 19.0904C1.99456 18.9212 1.7181 19.0751 1.10373 19.6288C0.612231 20.0596 0.212891 20.3211 0.212891 20.2288C0.212891 20.1211 0.381842 19.3366 0.581513 18.4905C0.796542 17.6444 1.1498 16.4292 1.36483 15.7985C1.59522 15.1678 2.14816 13.9217 2.60893 13.0295C3.05435 12.1373 3.85303 10.799 4.39061 10.0452C4.92818 9.29144 5.98797 8.04541 6.74057 7.26088C7.49318 6.47634 8.70656 5.41491 9.42844 4.87651C10.1503 4.35348 11.2255 3.63048 11.8091 3.29205C12.3928 2.93824 13.4833 2.39984 14.2359 2.07679C14.9731 1.75375 16.1712 1.32303 16.9084 1.10766Z" fill="#4177B7"/>
<path d="M31.7306 51.9947C32.1913 51.5485 32.56 51.3332 32.9286 51.287C33.2204 51.2563 33.6044 51.2409 33.7733 51.2717C33.9423 51.3024 34.3109 51.3332 35.0789 51.3332L34.9867 53.456C34.9253 54.9174 34.8178 55.7174 34.6335 56.0865C34.4952 56.3788 34.2034 56.7634 33.543 57.2557L34.0652 57.7941C34.3416 58.0863 34.6949 58.5632 34.8331 58.8401C34.9714 59.1016 35.0789 59.4093 35.0789 59.4862C35.0789 59.5785 34.8792 59.64 34.6335 59.64C34.3877 59.64 34.0652 59.7631 33.9116 59.9169C33.758 60.0554 33.374 60.3015 33.0515 60.4553C32.7289 60.5938 32.4678 60.7938 32.4678 60.8707C32.4678 60.963 31.5616 61.8244 30.4711 62.7935C29.3806 63.7627 28.4283 64.5626 28.3515 64.5626C28.2901 64.5626 27.5836 65.2087 26.7849 65.9932C25.9862 66.7778 24.2506 68.3468 22.9451 69.5006C21.6395 70.6543 20.3494 71.8388 20.0729 72.1157C19.7196 72.5002 19.52 72.9156 19.351 73.6386C19.2281 74.1924 19.1667 74.7 19.2281 74.7769C19.2896 74.8692 19.1206 74.8692 18.7981 74.8077C18.5063 74.7462 17.984 74.5616 17.6461 74.4077C17.3082 74.2539 16.7707 73.8386 16.4481 73.5001C16.1409 73.1463 15.757 72.531 15.6034 72.1003C15.4498 71.6388 15.2347 71.3158 15.0811 71.3004C14.8354 71.2542 14.8354 71.2081 15.0351 70.7927C15.1579 70.5466 15.7262 69.8544 16.3099 69.2544C16.8782 68.6545 18.1837 67.4238 19.2128 66.4855L19.266 66.4377C20.2921 65.5174 21.7298 64.228 22.4997 63.5627C23.283 62.8858 24.4196 61.8859 25.0186 61.3322C25.6176 60.7784 26.9231 59.6246 27.9061 58.7632C29.5956 57.271 29.7031 57.148 29.7031 56.6096C29.7031 56.1173 29.8107 55.9173 30.3943 55.3328C31.0855 54.6559 31.0855 54.6252 31.0855 53.6406C31.0855 52.6715 31.1008 52.6254 31.7306 51.9947Z" fill="#4177B7"/>
<path d="M33.0512 60.4401C33.3737 60.3016 33.7577 60.0555 33.9113 59.917V59.9016C34.0649 59.7632 34.3874 59.6401 34.6332 59.6401C34.8943 59.6401 35.1093 59.7324 35.1554 59.8709C35.2014 59.9939 35.2322 60.3939 35.2322 60.7477C35.2322 61.1169 35.1554 61.6553 35.0632 61.9476C34.9557 62.2399 34.6485 62.8244 33.8191 64.0243L34.2031 64.4089C34.4181 64.6242 34.71 65.0396 34.8482 65.3319C35.0018 65.6241 35.1554 66.2856 35.2014 66.7932C35.2475 67.4547 35.1861 67.9624 34.9864 68.5623C34.7867 69.1469 34.4796 69.6391 33.9727 70.1314C33.4198 70.6852 33.0051 70.9313 32.3293 71.1313C31.4691 71.3928 31.4231 71.4389 31.162 72.1773C30.993 72.6542 30.6244 73.2234 30.179 73.6541C29.6721 74.1771 29.2421 74.4386 28.6277 74.6232C27.9365 74.8232 26.9996 74.8693 23.5284 74.8693C21.1785 74.8693 19.2278 74.8232 19.1971 74.7463C19.151 74.6847 19.2278 74.1925 19.3507 73.6387C19.5197 72.9157 19.7193 72.5004 20.0726 72.1158C20.3491 71.8389 21.6392 70.6544 22.9448 69.5007C24.2503 68.3469 25.9859 66.7779 26.7846 65.9933C27.5833 65.2088 28.2898 64.5627 28.3666 64.5627C28.428 64.5627 29.3803 63.7628 30.4708 62.7937C31.5613 61.8245 32.4675 60.9631 32.4675 60.8708C32.4675 60.7785 32.7286 60.5939 33.0512 60.4401Z" fill="#4177B7"/>
<path d="M43.0192 12.568C43.2035 12.4449 43.4339 12.2603 43.5261 12.1526C43.6182 12.0449 43.7257 11.9526 43.7565 11.9526C43.8025 11.9526 44.0944 12.491 44.4323 13.1525C44.7548 13.7986 45.2002 14.8446 45.4306 15.46C45.6457 16.0599 45.83 16.6137 45.83 16.6906C45.83 16.7521 45.5074 17.029 45.1081 17.3213C44.7087 17.6136 44.1865 18.0289 43.9408 18.2443C43.7104 18.4597 43.5261 18.7058 43.5261 18.7981C43.5261 18.8904 42.8964 19.6134 42.0977 20.4133C41.3144 21.2132 39.9474 22.5669 39.0565 23.413C38.1811 24.2591 36.5991 25.7512 35.5393 26.7357C34.4795 27.7203 31.3769 30.5815 28.6276 33.1043C25.8783 35.6271 23.2979 37.9038 22.8679 38.1807C22.4532 38.4422 21.9463 38.7191 21.762 38.7653C21.4856 38.8422 21.4088 38.8114 21.4088 38.6114C21.4241 38.3961 21.2705 38.4576 20.7176 38.9191C20.2568 39.2986 20.0264 39.4114 20.0264 39.2575C20.0264 39.1345 19.965 39.0268 19.8728 39.0268C19.7807 39.0268 19.5349 39.1191 19.3045 39.2421C19.0588 39.3652 18.7055 39.6421 18.4905 39.8729C18.2755 40.0882 17.9222 40.3805 17.6918 40.5036C17.3078 40.6882 17.2618 40.6882 17.2618 40.4882C17.2618 40.3651 17.2003 40.2574 17.1082 40.2574C17.016 40.2574 16.4938 40.6728 15.9255 41.1804C15.219 41.8111 14.7889 42.088 14.6046 42.0265C14.4664 41.9803 14.2821 42.0419 14.2053 42.1495C14.1285 42.2418 13.852 42.3803 13.5909 42.4572C13.3144 42.5187 13.1148 42.6572 13.1148 42.7956C13.1148 42.9187 13.0533 43.0264 12.9612 43.0264C12.869 43.0264 12.5618 43.211 12.27 43.4571C11.9782 43.6878 11.7324 44.0109 11.7324 44.1801C11.7324 44.3493 11.6556 44.5801 11.5481 44.6877C11.4406 44.78 11.2717 44.8723 11.1641 44.8723C11.0413 44.8723 10.9952 44.7493 11.0413 44.5647C11.1027 44.3186 11.0259 44.2416 10.688 44.1647C10.4269 44.1032 10.1811 44.1647 9.99684 44.3185C9.75109 44.5493 9.72037 44.5185 9.13672 43.4109L10.1658 42.7187C10.7341 42.3341 11.4406 41.7803 11.7478 41.4881C12.055 41.1958 12.6079 40.7035 12.9765 40.3959C13.3452 40.0882 14.5432 39.0575 15.649 38.0884C16.7549 37.1347 19.965 34.2273 22.7911 31.6275C25.6172 29.0432 28.9041 26.0281 30.0867 24.9513C31.2694 23.8745 32.7592 22.49 33.389 21.8901C34.0187 21.2901 35.1246 20.2441 35.8465 19.5826C36.5683 18.9058 37.966 17.5674 38.9644 16.5983C39.9627 15.6292 40.7768 14.7985 40.7614 14.7677C40.7614 14.7523 41.1915 14.2909 41.729 13.7525C42.2513 13.214 42.8349 12.6756 43.0192 12.568Z" fill="#4177B7"/>
<path d="M10.8262 46.949L11.2256 46.5183L11.6249 46.0722L11.7324 46.826C11.7939 47.2259 11.8707 47.6721 11.9321 47.7951C11.9782 47.9336 11.886 48.1797 11.3485 48.7181L10.8262 46.949Z" fill="#4177B7"/>
<path d="M35.0342 54.7175C35.0034 55.0098 34.9727 54.7329 34.9727 54.1022C34.9727 53.4715 35.0034 53.2254 35.0342 53.5638C35.065 53.9022 35.065 54.4253 35.0342 54.7175Z" fill="#4177B7" fill-opacity="0.7"/>
<path d="M23.9429 0.0615322C23.605 0.0922982 23.1288 0.0922982 22.8677 0.0615322C22.6066 0.0307661 22.8984 0 23.4821 0C24.0811 0 24.2808 0.0307661 23.9429 0.0615322Z" fill="#4177B7" fill-opacity="0.3"/>
<path d="M25.5565 74.9768C24.3278 75.0076 22.3618 75.0076 21.1791 74.9768C19.9965 74.9614 20.9948 74.9307 23.4062 74.9307C25.8176 74.9307 26.7853 74.9614 25.5565 74.9768Z" fill="#4177B7" fill-opacity="0.2"/>
<path d="M19.2276 52.8867C19.2123 52.7637 19.3659 52.5022 19.5655 52.3022C19.8266 52.0407 19.9495 51.9945 19.9956 52.133C20.0263 52.2406 19.8727 52.5022 19.6577 52.7175C19.3659 52.9944 19.243 53.0406 19.2276 52.8867Z" fill="#4177B7"/>
<path d="M33.8201 43.657C33.7893 43.2878 33.8661 43.1801 34.2501 43.0571H34.2348C34.4959 42.9648 34.8184 42.8879 34.9567 42.8879C35.1102 42.8725 35.2331 42.8879 35.2331 42.9186C35.2485 42.934 34.9259 43.2109 33.8508 44.1031L33.8201 43.657Z" fill="#4177B7"/>
<path d="M24.1591 51.9639C24.1437 51.8408 24.328 51.5331 24.5738 51.3024C24.8195 51.0716 25.1114 50.8717 25.2189 50.8717C25.3264 50.8717 25.4186 50.9178 25.4032 50.9947C25.4032 51.0563 25.1114 51.3485 24.7888 51.6408C24.3741 52.01 24.1745 52.1023 24.1591 51.9639Z" fill="#4177B7"/>
<path d="M12.5473 44.6722C12.2862 44.5646 12.3016 44.5338 12.6548 44.1646L13.0235 43.7646L13.0849 44.1185C13.1003 44.3184 13.0542 44.5646 12.9774 44.6415C12.8852 44.7338 12.7009 44.7492 12.5473 44.6722Z" fill="#4177B7"/>
<path d="M11.0575 45.949C10.9448 45.8465 11.0165 45.667 11.2725 45.4106C11.4722 45.1953 11.6565 45.0261 11.6872 45.0261C11.7179 45.0261 11.7486 45.226 11.7486 45.4875C11.7384 45.7952 11.6463 45.9747 11.4722 46.026C11.3186 46.0721 11.1343 46.0413 11.0575 45.949Z" fill="#4177B7"/>
</svg>
